<svg width="420" height="99" viewBox="0 0 420 99" fill="none" xmlns="http://www.w3.org/2000/svg">
<path d="M149.923 95.8946C149.822 95.8946 149.722 95.7884 149.621 95.6821C149.521 95.5759 149.42 95.4696 149.32 95.2571C149.219 95.0446 149.219 94.9384 149.219 94.7259L148.314 94.8321C145.599 95.1509 142.382 95.5759 139.667 95.0446C138.46 94.8321 136.851 94.4071 136.147 93.4509C136.047 93.3446 135.946 93.1321 135.846 92.9196C135.645 92.3884 135.443 91.5384 136.047 90.6884C138.158 87.5009 148.917 85.3759 152.638 84.6321C153.141 83.5696 153.543 82.6134 154.046 81.5509C160.984 65.2946 170.134 50.9509 180.591 36.9259C173.251 40.8571 161.084 44.2571 154.347 38.0946C153.442 37.2446 152.638 36.2884 152.135 35.1196C148.012 26.5134 157.867 16.1009 164.101 11.7446C181.496 -0.686627 211.964 -4.29913 230.465 7.17587C260.43 25.7696 205.227 56.9009 191.853 60.3009C193.663 60.9384 195.674 61.7884 197.182 63.1696C202.411 68.1634 195.674 74.6446 186.323 80.2759C197.082 78.6821 208.042 76.2384 219.907 71.8821C219.505 70.5009 219.807 69.0134 220.41 67.8446C220.712 67.3134 221.013 66.8884 221.415 66.4634C221.818 66.0384 222.32 65.7196 222.723 65.5071C223.125 65.1884 223.628 65.0821 224.13 64.9759C224.533 64.8696 224.935 64.8696 225.236 64.8696C225.639 64.8696 225.94 64.9759 226.242 64.9759C226.443 64.9759 226.644 65.0821 226.745 65.0821C226.845 65.0821 226.946 65.1884 227.046 65.1884C227.247 65.1884 227.348 65.2946 227.549 65.2946C227.951 65.4009 228.253 65.5071 228.555 65.8259C228.856 66.0384 229.057 66.3571 229.158 66.7821C229.258 67.2071 229.258 67.5259 229.258 67.8446C229.158 68.1634 229.057 68.5884 228.756 68.9071C228.555 69.2259 228.253 69.5446 227.951 69.8634C227.65 70.1821 227.247 70.3946 226.845 70.7134C226.443 70.9259 226.041 71.2446 225.639 71.4571C225.236 71.6696 224.834 71.8821 224.432 72.0946C224.231 72.2009 223.929 72.3071 223.728 72.4134C223.628 72.5196 223.527 72.5196 223.426 72.5196L223.024 72.7321C223.225 73.1571 223.527 73.4759 223.929 73.7946C224.331 74.1134 224.834 74.4321 225.437 74.7509C226.644 75.2821 227.951 75.3884 229.359 75.1759C230.666 74.9634 231.873 74.6446 233.18 74.3259C234.387 73.9009 235.593 73.3696 236.8 72.8384C238.509 71.9884 241.124 70.6071 240.621 69.4384C240.52 69.1196 240.621 68.9071 241.023 68.6946L241.727 68.2696C241.827 68.0571 242.029 67.4196 242.129 67.2071C242.632 66.1446 243.336 65.0821 244.14 63.8071C248.665 56.7946 256.508 47.3384 263.446 42.8759C264.753 42.0259 267.267 40.5384 269.178 41.9196C269.379 42.1321 269.58 42.3446 269.68 42.7696C269.68 43.1946 269.58 43.7259 269.379 44.2571C269.178 44.7884 268.876 45.4259 268.474 46.0634C268.072 46.7009 267.569 47.3384 266.965 48.1884C266.362 48.9321 265.759 49.7821 264.954 50.6321C260.53 55.4134 255.704 60.1946 250.978 64.5509C249.972 65.4009 249.168 66.1446 248.263 66.8884C247.458 67.6321 246.654 68.1634 245.95 68.8009L244.442 69.8634C244.442 70.0759 244.341 70.3946 244.14 70.6071H244.04C243.939 70.8196 243.838 71.0321 243.838 71.2446C243.738 71.5634 243.637 71.8821 243.537 72.2009C243.436 72.5196 243.436 72.8384 243.436 73.1571C243.436 73.4759 243.436 73.6884 243.537 74.0071C243.637 74.4321 243.738 74.7509 244.04 74.9634C244.241 75.0696 244.442 75.2821 244.643 75.3884C244.945 75.3884 245.246 75.4946 245.548 75.4946C246.151 75.4946 246.855 75.4946 247.559 75.3884C248.263 75.2821 249.067 75.1759 249.872 74.9634C250.676 74.7509 251.48 74.5384 252.285 74.3259C253.089 74.1134 253.994 73.7946 254.799 73.4759C255.603 73.1571 256.407 72.9446 257.212 72.6259C258.016 72.3071 258.72 71.9884 259.424 71.6696C260.128 71.3509 260.832 71.0321 261.435 70.7134C262.038 70.3946 262.541 70.0759 262.943 69.7571C263.144 69.3321 263.446 69.0134 263.748 68.6946C264.15 68.2696 264.452 67.8446 264.954 67.5259C265.357 67.1009 265.759 66.7821 266.161 66.5696C266.563 66.3571 266.965 66.1446 267.267 65.9321C267.368 65.9321 267.468 65.8259 267.569 65.8259C267.669 65.8259 267.77 65.8259 267.971 65.8259C268.172 65.8259 268.273 65.8259 268.373 65.9321C268.574 65.9321 268.775 65.9321 268.876 66.0384C268.876 66.0384 268.976 66.0384 268.976 66.1446C269.077 66.1446 269.077 66.1446 269.178 66.1446C269.278 66.1446 269.278 66.1446 269.278 66.1446C269.479 65.8259 269.781 65.5071 270.083 65.2946C270.485 64.8696 270.887 64.6571 271.289 64.4446C271.691 64.2321 272.094 64.2321 272.496 64.2321C272.596 64.2321 272.697 64.2321 272.797 64.2321C272.898 64.2321 272.999 64.2321 273.099 64.3384H273.2H273.3C273.401 64.3384 273.501 64.3384 273.602 64.4446C273.702 64.4446 273.803 64.5509 273.904 64.5509C274.004 64.5509 274.105 64.5509 274.105 64.5509C274.205 64.5509 274.306 64.5509 274.406 64.6571C274.507 64.7634 274.607 64.7634 274.708 64.8696C274.809 64.9759 274.909 64.9759 275.11 65.1884C275.412 65.5071 275.613 65.9321 275.814 66.2509C275.915 66.6759 276.015 67.1009 276.015 67.5259C276.015 67.9509 276.015 68.4821 275.915 68.9071C275.814 69.3321 275.713 69.8634 275.613 70.2884C275.512 70.7134 275.311 71.1384 275.11 71.5634C274.909 71.9884 274.708 72.4134 274.507 72.7321C274.406 72.9446 274.205 73.2634 274.105 73.3696C274.406 73.2634 274.607 73.2634 274.909 73.1571C275.512 72.9446 276.116 72.8384 276.719 72.6259C277.322 72.4134 277.926 72.2009 278.529 71.9884C279.132 71.7759 279.736 71.4571 280.339 71.2446C281.545 70.6071 283.355 69.7571 284.361 68.9071L284.461 68.8009H284.763C284.964 68.5884 285.165 68.3759 285.366 68.1634L285.568 67.9509C285.769 67.6321 286.07 67.4196 286.372 67.3134C286.573 67.2071 286.774 67.2071 287.076 67.3134C287.277 67.3134 287.478 67.4196 287.679 67.5259H287.78C287.981 67.5259 288.282 67.5259 288.584 67.7384C288.886 67.9509 289.087 68.1634 289.087 68.4821C289.087 68.6946 288.986 69.0134 288.685 69.3321L288.383 69.7571C287.981 70.7134 287.78 71.6696 287.78 72.3071C287.78 72.9446 287.981 73.4759 288.282 73.7946C288.785 73.6884 289.288 73.4759 289.891 73.1571C290.595 72.7321 291.198 72.4134 291.802 71.9884C292.405 71.5634 293.008 71.0321 293.612 70.5009C293.813 70.1821 294.114 69.9696 294.316 69.7571C294.517 69.5446 294.718 69.4384 294.919 69.4384C295.019 69.4384 295.221 69.4384 295.321 69.5446H295.422C295.522 69.5446 295.723 69.6509 295.824 69.6509C295.924 69.6509 295.924 69.7571 296.025 69.7571C296.125 69.7571 296.125 69.7571 296.226 69.7571C296.427 69.7571 296.528 69.7571 296.628 69.8634C296.729 69.9696 296.93 70.0759 297.03 70.1821C297.232 70.3946 297.332 70.6071 297.332 70.7134C297.433 70.9259 297.433 71.0321 297.232 71.1384C297.131 71.1384 297.131 71.2446 297.03 71.3509C296.93 71.4571 296.93 71.6696 296.829 71.8821C296.528 72.5196 296.327 73.0509 296.327 73.5821C296.226 74.0071 296.226 74.3259 296.327 74.5384C296.427 74.7509 296.628 74.9634 296.829 75.0696C296.93 75.0696 296.93 75.1759 296.93 75.1759C297.131 75.1759 297.332 75.1759 297.533 75.1759C297.935 75.1759 298.338 75.0696 298.74 74.9634C299.142 74.8571 299.544 74.7509 299.946 74.6446C300.349 74.5384 300.65 74.4321 300.952 74.3259C301.354 74.2196 301.656 74.0071 301.957 73.9009C302.259 73.7946 302.561 73.5821 302.862 73.3696L303.767 72.8384L304.672 72.3071C304.974 72.0946 305.276 71.8821 305.577 71.6696L306.482 71.0321C306.482 70.9259 306.583 70.8196 306.583 70.7134C306.683 70.6071 306.683 70.5009 306.784 70.3946C307.991 69.5446 308.996 68.8009 309.901 68.0571C310.806 67.3134 311.611 66.6759 312.214 66.1446L314.024 64.5509L315.532 63.2759C315.532 63.1696 315.633 63.0634 315.633 62.9571C315.733 62.8509 315.834 62.7446 315.934 62.6384C316.437 62.3196 317.845 62.5321 318.247 62.7446C318.347 62.8509 318.448 62.9571 318.549 63.0634C318.649 63.1696 318.649 63.3821 318.649 63.5946C318.649 63.8071 318.549 64.0196 318.448 64.3384C318.247 65.6134 318.146 66.8884 318.046 68.0571C317.945 69.2259 317.845 70.2884 317.845 71.2446C317.845 72.2009 317.744 73.1571 317.644 74.2196C317.543 74.8571 317.443 75.6009 317.241 76.2384C317.744 76.0259 318.146 75.9196 318.649 75.7071C323.174 74.1134 329.207 71.9884 333.33 69.6509C333.531 69.3321 333.732 69.0134 334.034 68.6946C334.335 68.2696 334.737 67.8446 335.14 67.5259C335.542 67.1009 335.944 66.7821 336.346 66.5696C336.748 66.3571 337.151 66.1446 337.452 65.9321C337.553 65.9321 337.653 65.8259 337.754 65.8259C337.855 65.8259 338.056 65.8259 338.156 65.8259C338.357 65.8259 338.458 65.8259 338.558 65.9321C338.76 65.9321 338.961 65.9321 339.061 66.0384C339.162 66.0384 339.162 66.0384 339.162 66.1446C339.262 66.1446 339.262 66.1446 339.363 66.1446H339.463C339.664 65.8259 339.966 65.5071 340.268 65.2946C340.67 64.8696 341.072 64.6571 341.474 64.4446C341.877 64.2321 342.279 64.2321 342.681 64.2321C342.782 64.2321 342.882 64.2321 342.983 64.2321C343.083 64.2321 343.184 64.2321 343.284 64.3384H343.385H343.485C343.586 64.3384 343.687 64.3384 343.787 64.4446C343.888 64.4446 343.988 64.5509 344.089 64.5509C344.189 64.5509 344.29 64.5509 344.29 64.5509C344.39 64.5509 344.491 64.5509 344.592 64.6571C344.692 64.6571 344.793 64.7634 344.893 64.8696C344.994 64.9759 345.094 64.9759 345.295 65.1884C345.597 65.5071 345.798 65.9321 345.999 66.2509C346.1 66.6759 346.2 67.1009 346.2 67.5259C346.2 67.9509 346.1 68.4821 346.1 68.9071C345.999 69.3321 345.899 69.8634 345.798 70.2884C345.597 70.7134 345.496 71.1384 345.295 71.5634C345.094 71.9884 344.893 72.4134 344.692 72.7321C344.592 72.9446 344.39 73.2634 344.29 73.3696C344.491 73.2634 344.793 73.2634 345.094 73.1571C345.698 72.9446 346.301 72.8384 346.804 72.6259C347.407 72.4134 348.01 72.2009 348.614 71.9884C349.217 71.7759 349.82 71.4571 350.424 71.2446C350.826 71.0321 351.127 70.9259 351.53 70.7134L352.334 70.1821C352.736 69.8634 353.239 69.4384 353.842 69.1196C354.345 68.8009 354.848 68.3759 355.15 68.0571C355.552 67.7384 355.853 67.4196 356.054 67.1009C356.155 66.9946 356.256 66.8884 356.356 66.7821C356.457 66.6759 356.658 66.6759 356.859 66.5696C357.06 66.4634 357.261 66.5696 357.462 66.6759C357.663 66.6759 357.764 66.6759 357.965 66.7821C358.065 66.7821 358.066 66.8884 358.166 66.8884C358.367 66.7821 358.568 66.8884 358.769 66.9946C358.97 67.1009 359.172 67.3134 359.272 67.5259L359.373 67.6321L358.97 69.9696L358.769 71.2446L358.568 72.4134C358.468 73.1571 358.367 73.9009 358.367 74.5384V74.7509C358.669 74.6446 359.071 74.3259 359.473 74.0071L361.283 72.6259C361.183 72.4134 361.082 72.0946 360.982 71.8821C360.881 71.5634 360.881 71.1384 360.881 70.7134C360.881 70.2884 360.982 69.8634 361.082 69.4384C361.183 69.0134 361.283 68.5884 361.484 68.1634C361.685 67.7384 361.786 67.3134 361.987 66.8884C362.188 66.4634 362.389 66.1446 362.691 65.8259C362.892 65.5071 363.194 65.2946 363.495 65.0821C363.797 64.8696 364.099 64.7634 364.4 64.7634C364.903 64.6571 366.411 64.9759 366.814 65.2946C367.115 65.6134 367.417 65.9321 367.618 66.3571C367.719 66.5696 367.819 66.7821 367.819 66.9946C367.819 67.2071 367.92 67.5259 367.92 67.7384C367.92 67.9509 367.92 68.2696 367.819 68.4821C367.718 68.6946 367.719 68.9071 367.618 69.1196L367.517 69.4384L367.316 69.8634C367.216 70.0759 367.115 70.2884 367.015 70.5009C366.914 70.7134 366.814 70.9259 366.612 71.1384C366.512 71.3509 366.311 71.5634 366.21 71.7759C366.009 71.9884 365.808 72.2009 365.707 72.4134L365.004 73.1571C365.205 73.2634 365.506 73.3696 365.707 73.3696C365.808 73.3696 365.909 73.3696 366.11 73.4759C367.115 73.5821 368.121 73.4759 369.227 73.2634C370.333 73.0509 371.539 72.5196 372.847 71.8821L373.349 71.5634C373.55 71.3509 373.852 71.0321 374.053 70.8196C374.455 70.3946 374.958 69.9696 375.562 69.5446C376.165 69.1196 376.668 68.8009 377.371 68.6946C377.975 68.4821 378.578 68.3759 379.282 68.3759C379.684 68.3759 380.086 68.4821 380.489 68.4821C380.79 68.4821 381.092 68.5884 381.394 68.6946C381.896 68.8009 382.5 68.9071 383.002 69.2259C383.405 69.4384 383.706 69.6509 384.008 69.8634C384.108 69.9696 384.209 70.0759 384.31 70.1821L384.712 69.7571C384.812 69.6509 384.913 69.5446 385.114 69.4384C385.617 69.0134 387.226 69.3321 387.527 69.7571L387.628 69.8634C387.829 70.0759 387.929 70.3946 387.929 70.6071C387.929 70.8196 387.829 71.0321 387.728 71.2446C387.326 71.5634 387.024 71.9884 386.823 72.3071C386.622 72.7321 386.421 73.1571 386.421 73.5821C386.321 74.1134 386.321 74.4321 386.522 74.7509C386.622 74.9634 386.723 75.1759 386.924 75.2821C387.125 75.3884 387.427 75.3884 387.829 75.2821C388.231 75.1759 388.633 75.0696 389.136 74.8571C393.661 72.7321 416.486 56.1571 419.201 59.7696C419.402 59.9821 419.503 60.3009 419.503 60.5134C419.503 60.8321 417.391 61.4696 415.581 62.0009C406.632 64.6571 399.795 70.9259 391.952 75.3884C390.142 76.4509 387.024 78.4696 384.511 76.2384C384.209 76.0259 384.008 75.6009 383.807 75.2821C383.706 75.1759 383.706 74.9634 383.606 74.8571C383.405 75.0696 383.103 75.2821 382.801 75.4946C382.299 75.9196 381.896 76.2384 381.394 76.4509C380.891 76.7696 380.388 77.0884 379.885 77.3009C379.383 77.5134 378.88 77.8321 378.377 78.0446C377.874 78.2571 377.472 78.4696 376.969 78.5759C376.165 78.7884 374.455 78.7884 373.551 78.2571C373.048 77.9384 372.646 77.6196 372.344 77.1946C372.143 76.7696 371.942 76.2384 371.942 75.7071V75.4946C371.439 75.6009 370.936 75.7071 370.433 75.8134C369.026 76.0259 367.92 76.0259 366.814 75.9196C365.808 75.7071 364.802 75.3884 364.099 74.7509H363.998C363.797 74.9634 363.596 75.1759 363.294 75.3884C363.093 75.6009 362.791 75.8134 362.49 76.0259C362.188 76.2384 361.987 76.4509 361.685 76.5571C361.384 76.7696 361.082 76.8759 360.78 77.0884C360.479 77.3009 360.177 77.4071 359.875 77.5134C359.574 77.6196 359.272 77.7259 358.97 77.8321C358.367 78.0446 357.864 78.0446 357.563 77.9384C357.362 77.8321 357.06 77.7259 356.959 77.5134C356.859 77.3009 356.658 77.0884 356.557 76.7696C356.457 76.4509 356.457 76.1321 356.356 75.8134C356.256 75.4946 356.256 75.0696 356.256 74.7509C356.256 74.3259 356.256 74.0071 356.256 73.5821C356.256 73.1571 356.356 72.8384 356.356 72.4134L356.457 71.6696C356.256 71.8821 355.954 72.0946 355.652 72.2009C355.25 72.5196 354.747 72.8384 354.144 73.1571L353.943 73.2634L353.44 73.6884H353.239L352.435 74.1134C351.831 74.4321 351.127 74.6446 350.424 74.9634C349.72 75.1759 349.016 75.4946 348.312 75.7071C347.608 75.9196 346.904 76.0259 346.2 76.2384C345.496 76.3446 344.793 76.4509 344.189 76.4509C343.586 76.4509 343.083 76.4509 342.581 76.3446C341.776 76.9821 341.072 77.4071 340.368 77.7259C339.664 78.0446 338.961 78.1509 338.257 78.1509C337.553 78.1509 337.05 78.0446 336.447 77.8321C335.944 77.7259 335.542 77.4071 335.14 77.1946C334.637 76.7696 334.235 76.3446 333.933 75.9196C333.631 75.4946 333.531 74.9634 333.43 74.4321C333.43 74.2196 333.43 73.9009 333.43 73.6884H333.33C327.799 76.3446 322.47 78.0446 316.739 80.1696C316.638 80.1696 316.638 80.1696 316.538 80.1696C316.035 82.2946 315.331 84.2071 314.325 85.8009C313.823 86.6509 313.32 87.3946 312.817 88.0321C312.314 88.6696 311.711 89.3071 311.108 89.8384C310.504 90.3696 309.901 90.7946 309.298 91.2196C308.694 91.6446 308.091 91.9634 307.387 92.0696C305.779 92.7071 304.17 92.4946 302.661 92.0696C302.259 91.9634 301.857 91.7509 301.455 91.5384C301.053 91.3259 300.65 91.0071 300.349 90.5821C299.946 90.1571 299.645 89.7321 299.544 89.3071C299.444 88.8821 299.243 88.3509 299.243 87.8196C299.243 87.2884 299.343 86.6509 299.444 86.1196C299.645 85.5884 299.946 85.1634 300.449 84.6321C300.851 84.2071 301.354 83.7821 301.957 83.4634C302.46 83.0384 303.064 82.7196 303.767 82.4009C304.371 82.0821 305.075 81.7634 305.779 81.4446C306.482 81.1259 307.287 80.8071 307.991 80.5946C308.795 80.2759 309.499 80.0634 310.203 79.7446C310.907 79.5321 311.611 79.2134 312.314 78.8946C312.616 78.7884 313.521 78.5759 313.823 78.4696C313.923 77.9384 314.024 77.5134 314.024 77.0884C314.124 76.6634 314.124 76.1321 314.225 75.8134C314.325 75.3884 314.325 74.9634 314.325 74.5384C314.325 74.1134 314.426 73.6884 314.426 73.2634L314.627 70.5009C314.627 70.0759 314.728 69.5446 314.728 69.0134C314.225 69.4384 313.722 69.9696 313.219 70.3946C312.717 70.9259 312.113 71.3509 311.409 71.8821L310.605 72.4134C310.303 72.7321 309.901 73.0509 309.599 73.2634C308.996 73.6884 308.393 74.2196 307.79 74.6446C307.186 75.0696 306.583 75.4946 305.879 75.8134C305.276 76.2384 304.572 76.5571 303.969 76.8759C303.365 77.1946 302.762 77.4071 302.159 77.7259C301.555 77.9384 300.952 78.1509 300.349 78.2571C299.745 78.3634 299.142 78.4696 298.639 78.4696C298.137 78.4696 297.634 78.4696 297.131 78.3634C297.03 78.3634 296.93 78.2571 296.829 78.2571C296.729 78.2571 296.528 78.1509 296.427 78.1509C296.226 78.1509 296.125 78.0446 295.924 78.0446C295.422 77.9384 295.019 77.7259 294.718 77.5134C294.416 77.3009 294.014 76.8759 293.813 76.5571C293.612 76.2384 293.411 75.9196 293.31 75.6009C293.008 75.8134 292.606 76.0259 292.305 76.1321C291.5 76.5571 290.897 76.8759 290.293 76.9821C289.69 77.0884 289.087 77.1946 288.584 77.0884C288.081 76.9821 287.679 76.7696 287.277 76.4509C287.076 76.2384 286.774 76.0259 286.573 75.7071C286.372 75.3884 286.271 75.0696 286.07 74.7509C285.869 74.3259 285.869 74.0071 285.869 73.4759C285.869 73.1571 285.869 72.8384 285.97 72.5196C284.26 73.7946 282.652 74.4321 280.54 75.1759C279.836 75.3884 279.132 75.7071 278.529 75.9196C277.825 76.1321 277.121 76.2384 276.417 76.4509C275.713 76.5571 275.01 76.6634 274.406 76.6634C273.803 76.6634 273.3 76.6634 272.697 76.5571C271.892 77.1946 271.189 77.6196 270.485 77.9384C269.781 78.2571 269.077 78.3634 268.373 78.3634C267.669 78.3634 267.167 78.2571 266.664 78.0446C266.463 78.0446 266.262 77.9384 266.161 77.9384H266.262C265.96 77.9384 265.759 77.8321 265.457 77.7259C264.954 77.5134 264.552 77.3009 264.15 77.0884C263.647 76.6634 263.245 76.2384 262.943 75.8134C262.742 75.4946 262.642 75.1759 262.541 74.8571C261.837 75.1759 261.133 75.6009 260.329 75.9196C259.323 76.3446 258.318 76.7696 257.212 77.0884C256.106 77.5134 255.1 77.8321 253.994 78.0446C252.888 78.2571 251.782 78.5759 250.676 78.6821C248.564 79.0009 246.754 79.0009 245.347 78.5759C245.045 78.4696 244.743 78.4696 244.442 78.3634H244.341C244.442 78.3634 244.643 78.4696 244.743 78.4696H244.844C244.542 78.3634 244.241 78.3634 243.939 78.2571C243.537 78.1509 243.235 78.0446 242.934 77.9384C242.531 77.7259 242.23 77.5134 241.928 77.3009C241.626 77.0884 241.325 76.7696 241.124 76.3446C240.922 75.9196 240.721 75.6009 240.721 75.1759C240.721 75.0696 240.621 74.9634 240.621 74.7509C239.615 75.3884 238.509 75.9196 237.303 76.4509C236.599 76.7696 235.895 77.0884 235.191 77.3009C234.487 77.5134 233.683 77.8321 232.979 78.0446C232.174 78.2571 231.471 78.4696 230.767 78.4696C229.962 78.5759 229.258 78.6821 228.555 78.6821C228.052 78.6821 227.549 78.5759 227.046 78.5759C226.745 78.5759 226.443 78.4696 226.242 78.3634C226.041 78.3634 225.84 78.2571 225.538 78.2571L225.739 78.3634C225.236 78.2571 224.834 78.1509 224.331 77.9384C223.829 77.7259 223.426 77.5134 223.024 77.3009C222.622 77.0884 222.22 76.7696 221.818 76.4509C221.415 76.1321 221.114 75.8134 220.812 75.3884L220.712 75.2821C206.534 80.5946 193.764 83.1446 180.994 85.0571C174.458 88.5634 167.52 91.4321 162.894 93.1321C159.777 94.3009 156.559 95.1509 153.342 95.7884L152.738 97.5946C152.537 97.8071 152.336 98.0196 152.135 98.1259C152.035 98.2321 151.833 98.2321 151.733 98.1259C151.532 98.1259 151.431 98.0196 151.23 97.9134C151.13 97.9134 151.029 97.9134 150.928 97.9134C150.828 97.9134 150.828 97.9134 150.727 97.8071C150.627 97.8071 150.627 97.8071 150.526 97.8071C150.225 96.0009 150.124 95.8946 149.923 95.8946ZM5.2287 96.3196C5.12815 96.2134 5.0276 96.1071 4.92705 95.8946C4.82649 95.6821 4.72594 95.3634 4.72594 95.0446C4.82649 94.7259 4.92705 94.4071 5.2287 94.1946C5.53036 93.9821 5.93256 93.9821 6.23422 93.9821C10.0552 92.9196 13.8762 91.8571 17.7977 91.0071C23.9314 78.4696 30.7689 65.9321 37.9081 53.9259H37.707C25.138 53.3946 11.5635 51.3759 0.904968 43.7259C0.603312 43.5134 0.402208 43.3009 0.201104 42.9821C0.201104 42.7696 0.100552 42.5571 0 42.2384C0 42.0259 0 41.7071 0.100552 41.4946C0.201104 41.2821 0.402208 40.9634 0.703864 40.8571C0.904968 40.7509 1.20662 40.6446 1.50828 40.6446C1.80994 40.6446 2.11159 40.7509 2.41325 40.8571C2.7149 40.9634 3.01656 41.1759 3.31821 41.4946C4.52484 42.3446 5.73146 43.1946 6.93808 43.8321C15.7867 48.8259 29.6628 50.8446 39.9191 50.8446C46.1533 40.2196 55.8063 28.7446 64.4538 20.5634C71.4924 13.9759 90.899 -2.70538 102.261 0.375873C108.596 2.18212 108.797 11.1071 106.585 16.9509C98.3398 39.0509 62.5433 54.2446 41.528 54.2446C34.3888 66.1446 28.2551 77.6196 21.8198 90.0509C40.623 85.5884 61.4372 80.5946 80.6427 80.0634C84.6647 79.9571 89.1896 79.9571 93.2117 80.9134C93.9155 81.0196 94.4183 81.1259 94.921 81.8696C95.1221 82.1884 95.2227 82.6134 95.1221 83.0384C95.0216 83.6759 94.8205 84.1009 94.4183 84.3134C94.1166 84.5259 93.815 84.4196 93.5133 84.3134C92.6083 83.9946 92.005 83.8884 91.1001 83.7821C90.899 83.7821 90.5973 83.6759 90.2957 83.6759C87.3796 83.3571 84.162 83.4634 81.3465 83.4634C60.6328 83.9946 40.2208 89.2009 20.0098 93.8759C19.9093 93.9821 19.8087 94.7259 19.0043 95.0446C18.6021 95.1509 18.1999 95.0446 17.7977 94.6196C14.2784 95.4696 10.7591 96.4259 7.23974 97.4884H7.13919H7.03864C6.53588 97.4884 6.13367 97.3821 5.83201 97.1696C5.53036 96.9571 5.32925 96.6384 5.2287 96.3196ZM94.921 3.13837C85.3686 6.32587 74.3079 15.8884 66.6659 23.1134C60.2306 29.3821 48.2649 43.1946 43.2373 51.1634C52.7898 50.8446 66.1632 45.7446 80.6427 36.1821C93.0106 28.0009 103.267 14.2946 102.563 7.38837C102.06 2.50087 97.9376 2.18212 94.921 3.13837ZM156.861 83.9946C160.28 83.5696 163.296 83.1446 167.017 82.7196C170.436 82.2946 173.955 81.8696 177.374 81.4446C190.144 74.5384 201.104 65.9321 189.44 61.6821C188.032 61.1509 186.826 61.5759 185.418 61.5759C184.714 61.5759 184.01 60.8321 184.01 60.0884C184.01 59.7696 184.211 59.3446 184.513 59.2384C184.714 59.0259 185.016 59.1321 185.317 59.0259C204.422 56.9009 255.905 12.7009 215.181 3.66962C200.098 0.269623 181.295 4.83837 169.028 12.3821C146.705 26.0884 157.062 45.9571 185.116 30.7634C186.021 29.4884 187.127 28.3196 188.133 27.1509C191.451 23.2196 199.797 13.1259 204.02 12.8071C208.042 12.4884 206.936 15.8884 205.227 18.4384C202.109 23.1134 194.97 28.3196 190.445 31.4009C189.742 31.8259 188.937 32.1446 188.233 32.5696C175.966 48.8259 164.604 65.1884 156.861 83.9946ZM222.723 70.8196L223.225 70.6071L223.527 70.3946L224.432 69.8634L225.337 69.2259C225.639 69.0134 225.94 68.8009 226.141 68.5884C226.443 68.3759 226.644 68.1634 226.845 67.9509C227.046 67.7384 227.147 67.5259 227.247 67.3134C227.348 67.2071 227.348 66.9946 227.348 66.8884C226.745 66.7821 226.242 66.7821 225.739 66.9946C225.236 67.2071 224.633 67.5259 224.231 68.0571C223.728 68.5884 223.426 69.1196 223.125 69.6509C222.924 70.0759 222.823 70.3946 222.723 70.8196ZM171.441 84.5259C170.033 84.7384 168.626 84.8446 167.218 85.0571C163.296 85.4821 159.576 86.1196 155.755 86.7571C155.152 88.3509 154.548 89.9446 153.945 91.5384C156.559 91.0071 163.799 88.2446 171.441 84.5259ZM266.362 74.3259C266.965 74.3259 267.468 74.2196 268.072 74.1134C268.574 74.0071 268.976 73.7946 269.479 73.4759C269.077 73.1571 268.775 72.7321 268.574 72.3071C268.273 71.7759 268.172 71.2446 268.072 70.7134C267.971 70.1821 267.971 69.6509 268.072 69.1196C267.77 69.4384 267.468 69.6509 267.167 69.9696C266.764 70.2884 266.463 70.6071 266.06 70.9259C265.759 71.4571 265.558 71.9884 265.558 72.4134C265.558 72.8384 265.658 73.2634 265.759 73.6884C265.96 74.0071 266.161 74.2196 266.362 74.3259ZM339.262 73.4759C338.86 73.1571 338.558 72.7321 338.357 72.3071C338.056 71.7759 337.855 71.2446 337.855 70.7134C337.754 70.1821 337.855 69.6509 337.855 69.1196C337.553 69.4384 337.151 69.6509 336.95 69.9696C336.145 70.7134 335.441 71.0321 335.341 72.4134C335.24 72.8384 335.341 73.2634 335.542 73.6884C336.246 75.0696 338.458 73.9009 339.262 73.4759ZM263.547 48.8259C263.949 48.4009 264.351 47.9759 264.753 47.5509C265.155 47.1259 265.457 46.8071 265.658 46.3821C265.859 45.9571 266.161 45.6384 266.362 45.3196C266.563 45.0009 266.865 44.5759 267.066 44.2571L267.569 43.6196L267.669 43.5134H267.569C266.463 44.0446 265.357 44.7884 264.251 45.6384C258.016 50.1009 252.184 57.3259 247.76 63.7009L247.056 64.6571C247.659 64.2321 248.263 63.7009 248.866 63.0634C254.095 58.7071 258.821 53.8196 263.547 48.8259ZM274.105 65.6134C273.702 65.5071 273.2 65.8259 272.697 66.3571C272.496 66.6759 272.194 66.9946 271.993 67.3134C271.792 67.6321 271.591 68.0571 271.49 68.4821C271.289 68.9071 271.289 69.3321 271.189 69.7571C271.088 70.1821 271.088 70.6071 271.088 71.0321C271.088 71.4571 271.189 71.7759 271.289 71.9884C271.39 72.2009 271.591 72.4134 271.792 72.5196C272.194 71.9884 272.596 71.4571 272.999 70.7134C273.401 69.9696 273.702 69.1196 273.904 68.3759C274.004 67.9509 274.105 67.6321 274.205 67.3134C274.306 66.9946 274.306 66.6759 274.306 66.3571C274.306 66.1446 274.205 65.9321 274.205 65.7196C274.205 65.6134 274.205 65.6134 274.105 65.6134ZM314.225 79.2134L312.415 79.9571L310.102 80.8071C309.298 81.0196 308.594 81.3384 307.991 81.6571C307.287 81.9759 306.683 82.2946 306.08 82.6134C304.874 83.2509 303.868 83.9946 303.064 84.6321C302.661 84.9509 302.46 85.3759 302.259 85.6946C302.159 86.0134 302.058 86.3321 302.058 86.6509C302.058 87.0759 302.159 87.3946 302.259 87.7134C302.661 88.6696 304.17 88.9884 305.075 88.8821C305.477 88.7759 305.98 88.6696 306.482 88.4571C306.985 88.2446 307.488 88.0321 307.991 87.7134C308.493 87.3946 308.996 86.9696 309.499 86.5446C310.002 86.1196 310.404 85.5884 310.907 85.0571C311.409 84.5259 311.812 83.8884 312.214 83.2509C312.616 82.6134 313.018 81.8696 313.42 81.1259C313.722 80.4884 314.024 79.8509 314.225 79.2134ZM343.787 65.6134C343.385 65.5071 342.882 65.8259 342.379 66.3571C342.178 66.6759 341.877 66.9946 341.676 67.3134C341.474 67.6321 341.273 68.0571 341.173 68.4821C341.072 68.9071 340.972 69.3321 340.871 69.7571C340.771 70.1821 340.771 70.6071 340.771 71.0321C340.771 71.4571 340.871 71.7759 340.972 71.9884C341.072 72.2009 341.273 72.4134 341.474 72.5196C341.877 71.9884 342.279 71.4571 342.681 70.7134C343.083 69.9696 343.385 69.1196 343.586 68.3759C343.687 67.9509 343.787 67.6321 343.888 67.3134C343.988 66.9946 343.988 66.6759 343.988 66.3571C343.988 66.1446 343.988 65.9321 343.888 65.7196C343.988 65.6134 343.888 65.6134 343.787 65.6134ZM379.282 69.3321V69.4384C379.181 69.5446 379.181 69.5446 379.081 69.6509C377.975 70.6071 376.869 71.4571 375.763 72.0946C375.461 72.5196 375.26 72.8384 375.059 73.2634C374.858 73.5821 374.757 74.0071 374.657 74.3259C374.556 74.6446 374.556 74.9634 374.657 75.1759C374.757 75.3884 374.858 75.4946 374.958 75.6009C375.26 75.7071 375.562 75.7071 375.964 75.6009C376.366 75.4946 376.768 75.3884 377.271 75.1759C377.774 74.9634 378.276 74.6446 378.779 74.3259C379.282 74.0071 379.785 73.6884 380.287 73.3696C380.79 73.0509 381.293 72.6259 381.796 72.3071C382.299 71.8821 382.701 71.5634 383.203 71.1384L383.807 70.6071C383.606 70.6071 383.505 70.6071 383.304 70.5009C382.902 70.2884 382.5 70.0759 382.097 69.7571C381.896 69.6509 381.695 69.5446 381.394 69.5446C381.092 69.4384 380.79 69.4384 380.388 69.4384C379.986 69.1196 379.684 69.2259 379.282 69.3321ZM365.607 66.0384C365.305 66.0384 365.104 66.1446 364.802 66.4634C364.501 66.6759 364.3 67.1009 363.998 67.6321C363.797 68.1634 363.596 68.6946 363.495 69.2259C363.395 69.6509 363.395 69.9696 363.395 70.3946C363.797 69.7571 364.199 69.2259 364.601 68.8009C365.004 68.1634 365.406 67.6321 365.607 67.2071C365.909 66.3571 365.909 66.0384 365.607 66.0384ZM151.632 87.3946H151.431C148.515 87.9259 140.572 89.5196 138.561 91.6446C138.359 91.8571 138.158 92.1759 138.158 92.3884C138.158 94.1946 148.616 92.4946 149.822 92.2821C150.627 89.9446 151.13 88.7759 151.632 87.3946ZM67.0681 75.8134C66.7665 75.4946 66.5654 75.0696 66.4648 74.7509C66.3643 74.3259 66.3643 73.9009 66.3643 73.4759C66.3643 73.3696 66.4648 73.2634 66.4648 73.0509L66.3643 73.1571C66.0626 73.3696 64.9566 73.1571 64.5544 73.0509C64.3532 72.9446 64.1521 72.8384 63.951 72.6259C63.7499 72.4134 63.7499 72.2009 63.7499 71.9884C63.7499 71.7759 63.8505 71.5634 64.0516 71.4571C64.4538 71.2446 64.7555 71.0321 65.0571 70.9259C65.3588 70.8196 65.5599 70.6071 65.761 70.5009L66.3643 70.0759L67.8726 68.8009C68.2748 68.4821 68.7775 68.1634 69.4814 67.6321C69.9842 67.3134 71.593 67.7384 71.9952 68.2696C72.1963 68.5884 72.2969 68.8009 72.2969 69.0134C72.2969 69.2259 72.1963 69.4384 71.9952 69.5446C71.3919 70.1821 70.8891 70.7134 70.688 71.2446C70.4869 71.7759 70.1853 72.3071 69.9842 72.9446C69.5819 73.7946 69.582 74.4321 69.7831 74.6446L69.8836 74.7509C70.3864 74.7509 70.8891 74.6446 71.4924 74.5384L72.3974 74.2196C72.6991 74.1134 72.9002 74.1134 73.1013 74.0071C73.8051 73.7946 74.509 73.4759 75.2129 73.1571C75.9167 72.8384 76.6206 72.5196 77.425 72.0946C78.9333 71.3509 80.341 70.5009 81.7487 69.6509C82.1509 69.1196 82.5532 68.6946 83.0559 68.2696C83.5587 67.7384 84.162 67.4196 84.6647 67.2071C85.1675 66.9946 85.6703 66.8884 86.173 66.8884C86.3741 66.8884 86.6758 66.8884 86.8769 66.9946C86.9774 66.9946 87.078 66.9946 87.2791 67.1009H87.3796C87.5807 67.1009 87.8824 67.2071 88.1841 67.3134H88.2846C88.4857 67.4196 88.7874 67.4196 88.9885 67.5259H89.089C89.1896 66.6759 89.2901 65.9321 89.4912 65.0821C89.7929 64.0196 90.0945 62.8509 90.5973 61.6821C91.1001 60.5134 91.5023 59.4509 92.1056 58.3884C92.6083 57.3259 93.2117 56.2634 93.815 55.4134C94.4183 54.4571 95.0216 53.6071 95.7255 52.8634C96.4293 52.1196 97.1332 51.4821 97.8371 51.0571C98.5409 50.5259 99.2448 50.3134 99.9486 50.2071C101.658 50.1009 103.669 50.5259 104.172 52.5446C104.272 53.0759 104.272 53.7134 104.172 54.4571C104.071 55.0946 103.87 55.8384 103.569 56.5821C103.267 57.3259 102.965 58.0696 102.563 58.8134C102.161 59.5571 101.759 60.3009 101.256 61.0446C100.753 61.7884 100.25 62.6384 99.647 63.3821L98.0382 65.6134L96.6304 67.6321C96.3288 68.0571 96.0271 68.4821 95.7255 68.9071C95.4238 69.3321 95.0216 69.7571 94.7199 70.0759C94.3177 70.5009 94.0161 70.9259 93.6139 71.3509L92.4072 72.7321V72.8384C92.5078 73.1571 92.5078 73.3696 92.6083 73.5821C92.7089 73.6884 92.7089 73.7946 92.8095 73.9009C93.0106 74.1134 93.2117 74.3259 93.5133 74.5384C93.6139 74.5384 93.6139 74.6446 93.7144 74.6446C94.0161 74.6446 94.4183 74.6446 94.7199 74.6446C95.2227 74.5384 95.826 74.4321 96.3288 74.3259C96.9321 74.1134 97.5354 73.9009 98.1387 73.6884C98.742 73.3696 99.3453 73.0509 100.049 72.7321L100.451 72.5196V72.4134C100.451 72.2009 100.552 71.9884 100.753 71.8821C101.155 71.6696 101.457 71.4571 101.759 71.3509C102.06 71.2446 102.261 71.0321 102.462 70.9259L103.066 70.5009L104.574 69.2259C104.976 68.9071 105.479 68.5884 106.183 68.0571C106.384 67.9509 106.686 67.8446 106.887 67.9509C106.887 67.9509 106.987 67.9509 106.987 68.0571C107.088 68.0571 107.188 68.0571 107.289 68.0571C107.389 68.0571 107.49 68.1634 107.691 68.2696C107.792 68.2696 107.993 68.2696 108.194 68.2696C108.395 68.3759 108.596 68.4821 108.797 68.8009C108.998 69.1196 109.099 69.3321 109.099 69.5446C109.099 69.7571 108.998 69.9696 108.797 70.0759C108.194 70.6071 107.691 71.2446 107.49 71.6696C107.289 72.2009 106.987 72.7321 106.786 73.3696C106.485 74.2196 106.384 74.8571 106.585 75.0696L106.686 75.1759C107.188 75.1759 107.691 75.0696 108.294 74.9634L109.199 74.6446C109.501 74.5384 109.702 74.5384 109.903 74.4321C110.607 74.2196 111.311 73.9009 112.015 73.5821C112.719 73.2634 113.423 72.9446 114.227 72.5196C115.132 71.9884 116.138 71.5634 117.042 71.0321L117.445 70.6071C117.847 70.1821 118.35 69.7571 118.953 69.3321C119.556 68.9071 120.16 68.5884 120.763 68.3759C121.366 68.1634 121.97 68.0571 122.673 68.0571C123.076 68.0571 123.478 68.0571 123.88 68.1634C124.986 68.2696 126.394 68.6946 127.299 69.4384C127.399 69.5446 127.5 69.6509 127.6 69.7571L128.003 69.3321C128.103 69.2259 128.204 69.1196 128.405 69.0134C128.908 68.6946 130.516 68.9071 130.818 69.3321L130.919 69.4384C131.12 69.6509 131.22 69.9696 131.22 70.1821C131.22 70.3946 131.12 70.6071 131.019 70.8196C130.617 71.1384 130.315 71.5634 130.114 71.8821C129.913 72.3071 129.712 72.7321 129.712 73.1571C129.611 73.5821 129.611 74.0071 129.813 74.3259C129.813 74.4321 129.913 74.5384 129.913 74.5384C130.315 74.4321 130.718 74.3259 131.22 74.1134C131.723 73.9009 132.226 73.5821 132.729 73.3696C133.231 73.0509 133.835 72.7321 134.337 72.4134C134.84 72.0946 135.343 71.7759 135.846 71.4571C136.348 71.1384 136.851 70.8196 137.253 70.5009C137.756 70.1821 138.058 69.8634 138.359 69.6509C138.661 69.4384 138.862 69.2259 138.963 69.1196C139.566 68.8009 141.778 69.3321 141.778 70.5009C141.778 70.7134 141.678 70.9259 141.477 71.0321C141.074 71.3509 140.371 71.8821 139.466 72.5196C138.963 72.9446 138.561 73.2634 137.957 73.5821C137.455 73.9009 136.952 74.3259 136.348 74.6446C135.846 74.9634 135.242 75.2821 134.639 75.6009C132.427 76.6634 131.321 77.1946 128.606 76.4509C128.204 76.3446 127.802 76.1321 127.5 75.9196C127.198 75.7071 126.997 75.2821 126.796 74.8571C126.695 74.7509 126.695 74.5384 126.595 74.4321C126.394 74.6446 126.092 74.8571 125.79 75.0696C125.288 75.3884 124.886 75.8134 124.383 76.0259C123.88 76.2384 123.377 76.6634 122.874 76.8759C122.372 77.0884 121.869 77.4071 121.366 77.6196C120.16 78.1509 118.048 78.6821 116.64 77.7259C116.138 77.4071 115.735 77.0884 115.434 76.6634C115.233 76.2384 115.031 75.7071 115.031 75.1759V75.0696C114.529 75.3884 113.925 75.6009 113.322 75.8134C112.518 76.1321 111.713 76.4509 110.909 76.6634C108.697 77.3009 107.691 77.5134 105.378 76.9821C104.775 76.8759 104.272 76.5571 103.971 76.1321C103.669 75.8134 103.468 75.3884 103.367 75.0696C103.267 74.8571 103.267 74.5384 103.267 74.2196C103.066 74.3259 102.865 74.5384 102.563 74.6446C101.759 75.0696 101.055 75.4946 100.351 75.8134C99.5464 76.1321 98.8426 76.4509 98.1387 76.6634C97.4348 76.8759 96.6304 76.9821 96.0271 76.9821C95.3232 76.9821 94.6194 76.8759 94.0161 76.7696C93.9155 76.7696 93.9155 76.7696 93.815 76.7696C93.6139 76.7696 93.4128 76.6634 93.3122 76.6634H93.4128C93.2117 76.6634 93.0106 76.5571 92.8095 76.5571C92.1056 76.3446 91.6028 76.0259 91.1001 75.6009C90.899 75.3884 90.6979 75.1759 90.4968 74.8571L89.4912 75.7071C89.089 76.0259 88.6868 76.3446 88.2846 76.6634C87.8824 76.9821 87.4802 77.3009 87.078 77.5134C86.6758 77.8321 86.2736 78.0446 85.8714 78.2571C85.4692 78.4696 85.0669 78.6821 84.6647 78.7884C83.6592 79.2134 81.0449 78.8946 80.0394 77.8321C79.8382 77.6196 79.6371 77.3009 79.5366 76.9821C79.436 76.6634 79.3355 76.3446 79.3355 76.1321C79.3355 75.8134 79.3355 75.4946 79.3355 75.1759C79.3355 75.0696 79.3355 74.8571 79.436 74.7509H79.3355C78.5311 75.1759 77.8272 75.4946 76.9222 75.8134C76.1178 76.1321 75.3134 76.4509 74.509 76.6634C73.7046 76.8759 72.9002 77.0884 72.1963 77.1946C71.0902 77.4071 70.4869 77.3009 69.3808 76.9821H69.2803C69.1797 76.9821 69.0792 76.9821 68.8781 76.8759C67.9731 76.4509 67.4704 76.2384 67.0681 75.8134ZM69.7831 64.0196C69.6825 63.9134 69.6825 63.8071 69.6825 63.5946C69.6825 63.3821 69.7831 63.2759 69.7831 63.1696C70.2858 62.6384 70.5875 62.3196 71.0902 61.6821C71.2913 61.4696 71.3919 61.1509 71.593 60.9384C71.7941 60.7259 71.8946 60.4071 71.9952 59.9821C72.0957 59.6634 72.1963 59.4509 72.3974 59.4509C72.7996 59.3446 74.6095 59.9821 75.0118 60.5134C75.1123 60.7259 75.1123 60.9384 75.0118 61.1509C74.4084 62.9571 73.604 64.1259 72.6991 64.7634C72.0957 65.2946 70.1853 64.9759 69.7831 64.0196ZM91.7034 68.0571C91.9045 67.8446 92.1056 67.5259 92.3067 67.3134C92.7089 66.7821 93.2117 66.1446 93.7144 65.5071C94.2172 64.8696 94.6194 64.2321 95.1221 63.5946C95.6249 62.9571 96.0271 62.2134 96.5299 61.5759C97.0326 60.9384 97.4348 60.3009 97.8371 59.5571C98.2393 58.9196 98.6415 58.2821 99.0437 57.6446C99.4459 57.0071 99.7475 56.4759 99.9486 55.8384C100.25 55.3071 100.451 54.7759 100.653 54.3509C100.854 53.9259 100.954 53.5009 101.055 53.0759C101.155 52.7571 101.055 52.4384 100.954 52.2259V52.1196C100.753 52.1196 100.552 52.2259 100.351 52.3321C99.8481 52.5446 99.2448 53.0759 98.6415 53.7134C98.0381 54.3509 97.4348 55.0946 96.8315 55.9446C96.2282 56.7946 95.7255 57.7509 95.1221 58.7071C94.6194 59.6634 94.1166 60.7259 93.7144 61.7884C93.3122 62.8509 92.91 63.9134 92.5078 64.9759C92.1056 66.0384 91.9045 67.1009 91.7034 68.0571ZM88.5863 69.8634C88.2846 69.8634 88.0835 69.6509 88.0835 69.2259C87.983 69.1196 87.8824 69.0134 87.7819 69.0134H87.6813H87.5807C86.9774 68.9071 86.2736 69.1196 85.4692 69.8634C85.0669 70.2884 84.6647 70.7134 84.2625 71.1384C83.8603 71.5634 83.5587 72.0946 83.257 72.6259C82.5532 73.5821 82.1509 74.5384 81.9498 75.1759C81.8493 75.7071 81.8493 76.0259 81.9498 76.3446C82.0504 76.3446 82.1509 76.2384 82.3521 76.1321C82.7543 75.9196 83.0559 75.7071 83.4581 75.4946C83.8603 75.2821 84.2625 74.9634 84.6647 74.7509C85.0669 74.4321 85.4692 74.2196 85.8714 73.9009C86.2736 73.5821 86.6758 73.2634 86.9774 72.9446C87.3796 72.6259 87.6813 72.3071 87.983 71.9884C88.2846 71.7759 88.4857 71.4571 88.7874 71.2446L88.5863 69.8634ZM117.646 75.7071C118.048 75.6009 118.551 75.4946 118.953 75.1759C119.355 74.8571 119.858 74.6446 120.461 74.3259C120.964 74.0071 121.467 73.6884 121.97 73.3696C122.472 73.0509 122.975 72.6259 123.478 72.3071C123.981 71.8821 124.483 71.5634 124.886 71.1384L125.489 70.6071C125.388 70.6071 125.187 70.6071 124.986 70.5009C122.171 68.9071 120.16 70.6071 118.651 72.6259C118.35 73.0509 118.149 73.3696 117.947 73.7946C117.746 74.2196 117.646 74.5384 117.545 74.8571C117.445 75.1759 117.445 75.3884 117.545 75.7071C117.646 75.6009 117.646 75.6009 117.646 75.7071ZM106.283 64.3384C106.183 64.2321 106.082 64.1259 106.082 64.0196C105.982 63.9134 105.982 63.8071 105.982 63.5946C105.982 63.3821 105.982 63.2759 106.082 63.1696C106.183 63.0634 106.283 63.0634 106.384 63.0634L107.389 61.7884C107.591 61.5759 107.792 61.2571 107.892 61.0446C107.993 60.8321 108.194 60.5134 108.294 60.0884C108.395 59.7696 108.496 59.5571 108.697 59.5571C108.797 59.5571 108.998 59.5571 109.099 59.6634C109.3 59.5571 109.501 59.6634 109.803 59.8759C109.803 59.8759 109.903 59.8759 109.903 59.7696C110.104 59.6634 110.305 59.7696 110.607 59.9821C110.909 60.1946 111.21 60.3009 111.311 60.5134C111.512 60.7259 111.512 60.9384 111.311 61.1509C110.708 62.9571 109.903 64.1259 108.998 64.7634C108.797 64.9759 108.496 64.9759 108.294 64.9759C108.194 64.9759 107.993 64.8696 107.892 64.7634C107.792 64.8696 107.691 64.8696 107.49 64.7634C107.389 64.7634 107.389 64.7634 107.289 64.6571C107.188 64.6571 107.088 64.6571 107.088 64.6571C106.686 64.7634 106.485 64.6571 106.283 64.3384ZM193.663 26.3009C196.479 24.0696 199.998 21.2009 202.311 18.4384C202.813 17.9071 203.215 17.2696 203.517 16.7384C202.813 17.1634 202.21 17.5884 201.707 18.1196C198.288 20.9884 196.479 22.9009 193.663 26.3009Z" fill="black"/>
</svg>
