<svg width="571" height="163" viewBox="0 0 571 163" fill="none" xmlns="http://www.w3.org/2000/svg">
<path d="M204.31 131.824C204.173 131.824 204.036 131.678 203.899 131.533C203.762 131.388 203.625 131.242 203.488 130.952C203.351 130.661 203.351 130.516 203.351 130.225L202.118 130.37C198.418 130.806 194.033 131.388 190.333 130.661C188.689 130.37 186.497 129.789 185.537 128.481C185.4 128.336 185.263 128.045 185.126 127.754C184.852 127.028 184.578 125.865 185.4 124.702C188.278 120.342 202.94 117.436 208.01 116.418C208.695 114.965 209.243 113.657 209.928 112.204C219.383 89.9676 231.853 70.3476 246.104 51.1636C236.101 56.5409 219.521 61.1916 210.34 52.7623C209.106 51.5996 208.01 50.2916 207.325 48.6929C201.707 36.9209 215.136 22.6783 223.631 16.7196C247.337 -0.284413 288.857 -5.22575 314.071 10.4703C354.905 35.9036 279.676 78.4863 261.451 83.1369C263.918 84.0089 266.659 85.1716 268.714 87.0609C275.839 93.8916 266.658 102.757 253.915 110.46C268.577 108.28 283.513 104.937 299.682 98.9783C299.134 97.0889 299.545 95.0543 300.368 93.4556C300.779 92.7289 301.19 92.1476 301.738 91.5663C302.286 90.9849 302.971 90.5489 303.519 90.2583C304.067 89.8223 304.753 89.6769 305.438 89.5316C305.986 89.3863 306.534 89.3863 306.945 89.3863C307.493 89.3863 307.904 89.5316 308.315 89.5316C308.589 89.5316 308.863 89.6769 309 89.6769C309.137 89.6769 309.275 89.8223 309.412 89.8223C309.686 89.8223 309.823 89.9676 310.097 89.9676C310.645 90.1129 311.056 90.2583 311.467 90.6943C311.878 90.9849 312.152 91.4209 312.289 92.0023C312.426 92.5836 312.426 93.0196 312.426 93.4556C312.289 93.8916 312.152 94.4729 311.741 94.9089C311.467 95.3449 311.056 95.7809 310.645 96.2169C310.234 96.6529 309.686 96.9436 309.137 97.3796C308.589 97.6703 308.041 98.1063 307.493 98.3969C306.945 98.6876 306.397 98.9783 305.849 99.2689C305.575 99.4143 305.164 99.5596 304.89 99.7049C304.753 99.8503 304.616 99.8503 304.478 99.8503L303.93 100.141C304.204 100.722 304.616 101.158 305.164 101.594C305.712 102.03 306.397 102.466 307.219 102.902C308.863 103.629 310.645 103.774 312.563 103.484C314.345 103.193 315.989 102.757 317.77 102.321C319.415 101.74 321.059 101.013 322.703 100.286C325.033 99.1236 328.596 97.2343 327.91 95.6356C327.773 95.1996 327.91 94.9089 328.459 94.6183L329.418 94.0369C329.555 93.7463 329.829 92.8743 329.966 92.5836C330.651 91.1303 331.61 89.6769 332.706 87.9329C338.873 78.3409 349.561 65.4063 359.016 59.3023C360.797 58.1396 364.223 56.1049 366.827 57.9943C367.101 58.2849 367.375 58.5756 367.512 59.1569C367.512 59.7383 367.375 60.4649 367.101 61.1916C366.827 61.9183 366.416 62.7903 365.867 63.6623C365.319 64.5343 364.634 65.4063 363.812 66.5689C362.99 67.5863 362.168 68.7489 361.072 69.9116C355.042 76.4516 348.465 82.9916 342.024 88.9503C340.654 90.1129 339.558 91.1303 338.325 92.1476C337.228 93.1649 336.132 93.8916 335.173 94.7636L333.118 96.2169C333.118 96.5076 332.981 96.9436 332.706 97.2343H332.569C332.432 97.5249 332.295 97.8156 332.295 98.1063C332.158 98.5423 332.021 98.9783 331.884 99.4143C331.747 99.8503 331.747 100.286 331.747 100.722C331.747 101.158 331.747 101.449 331.884 101.885C332.021 102.466 332.158 102.902 332.569 103.193C332.844 103.338 333.118 103.629 333.392 103.774C333.803 103.774 334.214 103.92 334.625 103.92C335.447 103.92 336.406 103.92 337.365 103.774C338.325 103.629 339.421 103.484 340.517 103.193C341.613 102.902 342.71 102.612 343.806 102.321C344.902 102.03 346.135 101.594 347.232 101.158C348.328 100.722 349.424 100.432 350.52 99.9956C351.616 99.5596 352.576 99.1236 353.535 98.6876C354.494 98.2516 355.453 97.8156 356.275 97.3796C357.098 96.9436 357.783 96.5076 358.331 96.0716C358.605 95.4903 359.016 95.0543 359.427 94.6183C359.975 94.0369 360.386 93.4556 361.072 93.0196C361.62 92.4383 362.168 92.0023 362.716 91.7116C363.264 91.4209 363.812 91.1303 364.223 90.8396C364.36 90.8396 364.497 90.6943 364.634 90.6943C364.771 90.6943 364.908 90.6943 365.182 90.6943C365.456 90.6943 365.593 90.6943 365.73 90.8396C366.005 90.8396 366.279 90.8396 366.416 90.9849C366.416 90.9849 366.553 90.9849 366.553 91.1303C366.69 91.1303 366.69 91.1303 366.827 91.1303C366.964 91.1303 366.964 91.1303 366.964 91.1303C367.238 90.6943 367.649 90.2583 368.06 89.9676C368.608 89.3863 369.156 89.0956 369.704 88.8049C370.252 88.5143 370.801 88.5143 371.349 88.5143C371.486 88.5143 371.623 88.5143 371.76 88.5143C371.897 88.5143 372.034 88.5143 372.171 88.6596H372.308H372.445C372.582 88.6596 372.719 88.6596 372.856 88.8049C372.993 88.8049 373.13 88.9503 373.267 88.9503C373.404 88.9503 373.541 88.9503 373.541 88.9503C373.678 88.9503 373.815 88.9503 373.952 89.0956C374.089 89.2409 374.226 89.2409 374.363 89.3863C374.5 89.5316 374.637 89.5316 374.911 89.8223C375.323 90.2583 375.597 90.8396 375.871 91.2756C376.008 91.8569 376.145 92.4383 376.145 93.0196C376.145 93.6009 376.145 94.3276 376.008 94.9089C375.871 95.4903 375.734 96.2169 375.597 96.7983C375.46 97.3796 375.185 97.9609 374.911 98.5423C374.637 99.1236 374.363 99.7049 374.089 100.141C373.952 100.432 373.678 100.868 373.541 101.013C373.952 100.868 374.226 100.868 374.637 100.722C375.46 100.432 376.282 100.286 377.104 99.9956C377.926 99.7049 378.748 99.4143 379.57 99.1236C380.393 98.8329 381.215 98.3969 382.037 98.1063C383.681 97.2343 386.148 96.0716 387.518 94.9089L387.655 94.7636H388.066C388.34 94.4729 388.614 94.1823 388.888 93.8916L389.162 93.6009C389.436 93.1649 389.848 92.8743 390.259 92.7289C390.533 92.5836 390.807 92.5836 391.218 92.7289C391.492 92.7289 391.766 92.8743 392.04 93.0196H392.177C392.451 93.0196 392.862 93.0196 393.273 93.3103C393.684 93.6009 393.958 93.8916 393.958 94.3276C393.958 94.6183 393.821 95.0543 393.41 95.4903L392.999 96.0716C392.451 97.3796 392.177 98.6876 392.177 99.5596C392.177 100.432 392.451 101.158 392.862 101.594C393.547 101.449 394.232 101.158 395.055 100.722C396.014 100.141 396.836 99.7049 397.658 99.1236C398.48 98.5423 399.303 97.8156 400.125 97.0889C400.399 96.6529 400.81 96.3623 401.084 96.0716C401.358 95.7809 401.632 95.6356 401.906 95.6356C402.043 95.6356 402.317 95.6356 402.454 95.7809H402.591C402.728 95.7809 403.002 95.9263 403.139 95.9263C403.276 95.9263 403.276 96.0716 403.413 96.0716C403.55 96.0716 403.551 96.0716 403.688 96.0716C403.962 96.0716 404.099 96.0716 404.236 96.2169C404.373 96.3623 404.647 96.5076 404.784 96.6529C405.058 96.9436 405.195 97.2343 405.195 97.3796C405.332 97.6703 405.332 97.8156 405.058 97.9609C404.921 97.9609 404.921 98.1063 404.784 98.2516C404.647 98.3969 404.647 98.6876 404.51 98.9783C404.099 99.8503 403.825 100.577 403.825 101.304C403.688 101.885 403.688 102.321 403.825 102.612C403.962 102.902 404.236 103.193 404.51 103.338C404.647 103.338 404.647 103.484 404.647 103.484C404.921 103.484 405.195 103.484 405.469 103.484C406.017 103.484 406.565 103.338 407.113 103.193C407.661 103.048 408.209 102.902 408.758 102.757C409.306 102.612 409.717 102.466 410.128 102.321C410.676 102.176 411.087 101.885 411.498 101.74C411.909 101.594 412.32 101.304 412.731 101.013L413.965 100.286L415.198 99.5596C415.609 99.2689 416.02 98.9783 416.431 98.6876L417.664 97.8156C417.664 97.6703 417.801 97.5249 417.801 97.3796C417.939 97.2343 417.939 97.0889 418.076 96.9436C419.72 95.7809 421.09 94.7636 422.323 93.7463C423.557 92.7289 424.653 91.8569 425.475 91.1303L427.942 88.9503L429.997 87.2063C429.997 87.0609 430.134 86.9156 430.134 86.7703C430.271 86.6249 430.408 86.4796 430.545 86.3343C431.23 85.8983 433.149 86.1889 433.697 86.4796C433.834 86.6249 433.971 86.7703 434.108 86.9156C434.245 87.0609 434.245 87.3516 434.245 87.6423C434.245 87.9329 434.108 88.2236 433.971 88.6596C433.697 90.4036 433.56 92.1476 433.423 93.7463C433.286 95.3449 433.149 96.7983 433.149 98.1063C433.149 99.4143 433.012 100.722 432.875 102.176C432.738 103.048 432.601 104.065 432.327 104.937C433.012 104.646 433.56 104.501 434.245 104.21C440.411 102.03 448.633 99.1236 454.251 95.9263C454.525 95.4903 454.799 95.0543 455.21 94.6183C455.622 94.0369 456.17 93.4556 456.718 93.0196C457.266 92.4383 457.814 92.0023 458.362 91.7116C458.91 91.4209 459.458 91.1303 459.869 90.8396C460.006 90.8396 460.143 90.6943 460.28 90.6943C460.418 90.6943 460.692 90.6943 460.829 90.6943C461.103 90.6943 461.24 90.6943 461.377 90.8396C461.651 90.8396 461.925 90.8396 462.062 90.9849C462.199 90.9849 462.199 90.9849 462.199 91.1303C462.336 91.1303 462.336 91.1303 462.473 91.1303H462.61C462.884 90.6943 463.295 90.2583 463.706 89.9676C464.254 89.3863 464.802 89.0956 465.351 88.8049C465.899 88.5143 466.447 88.5143 466.995 88.5143C467.132 88.5143 467.269 88.5143 467.406 88.5143C467.543 88.5143 467.68 88.5143 467.817 88.6596H467.954H468.091C468.228 88.6596 468.365 88.6596 468.502 88.8049C468.639 88.8049 468.776 88.9503 468.913 88.9503C469.05 88.9503 469.187 88.9503 469.187 88.9503C469.324 88.9503 469.461 88.9503 469.598 89.0956C469.736 89.0956 469.873 89.2409 470.01 89.3863C470.147 89.5316 470.284 89.5316 470.558 89.8223C470.969 90.2583 471.243 90.8396 471.517 91.2756C471.654 91.8569 471.791 92.4383 471.791 93.0196C471.791 93.6009 471.654 94.3276 471.654 94.9089C471.517 95.4903 471.38 96.2169 471.243 96.7983C470.969 97.3796 470.832 97.9609 470.558 98.5423C470.284 99.1236 470.01 99.7049 469.736 100.141C469.598 100.432 469.324 100.868 469.187 101.013C469.461 100.868 469.873 100.868 470.284 100.722C471.106 100.432 471.928 100.286 472.613 99.9956C473.435 99.7049 474.257 99.4143 475.08 99.1236C475.902 98.8329 476.724 98.3969 477.546 98.1063C478.094 97.8156 478.505 97.6703 479.053 97.3796L480.15 96.6529C480.698 96.2169 481.383 95.6356 482.205 95.1996C482.89 94.7636 483.575 94.1823 483.987 93.7463C484.535 93.3103 484.946 92.8743 485.22 92.4383C485.357 92.2929 485.494 92.1476 485.631 92.0023C485.768 91.8569 486.042 91.8569 486.316 91.7116C486.59 91.5663 486.864 91.7116 487.138 91.8569C487.412 91.8569 487.549 91.8569 487.823 92.0023C487.96 92.0023 487.96 92.1476 488.097 92.1476C488.371 92.0023 488.646 92.1476 488.92 92.2929C489.194 92.4383 489.468 92.7289 489.605 93.0196L489.742 93.1649L489.194 96.3623L488.92 98.1063L488.646 99.7049C488.508 100.722 488.371 101.74 488.371 102.612V102.902C488.783 102.757 489.331 102.321 489.879 101.885L492.345 99.9956C492.208 99.7049 492.071 99.2689 491.934 98.9783C491.797 98.5423 491.797 97.9609 491.797 97.3796C491.797 96.7983 491.934 96.2169 492.071 95.6356C492.208 95.0543 492.345 94.4729 492.619 93.8916C492.893 93.3103 493.03 92.7289 493.305 92.1476C493.579 91.5663 493.853 91.1303 494.264 90.6943C494.538 90.2583 494.949 89.9676 495.36 89.6769C495.771 89.3863 496.182 89.2409 496.593 89.2409C497.278 89.0956 499.334 89.5316 499.882 89.9676C500.293 90.4036 500.704 90.8396 500.978 91.4209C501.115 91.7116 501.252 92.0023 501.252 92.2929C501.252 92.5836 501.389 93.0196 501.389 93.3103C501.389 93.6009 501.389 94.0369 501.252 94.3276C501.115 94.6183 501.115 94.9089 500.978 95.1996L500.841 95.6356L500.567 96.2169C500.43 96.5076 500.293 96.7983 500.156 97.0889C500.019 97.3796 499.882 97.6703 499.608 97.9609C499.471 98.2516 499.197 98.5423 499.06 98.8329C498.786 99.1236 498.512 99.4143 498.375 99.7049L497.415 100.722C497.689 100.868 498.101 101.013 498.375 101.013C498.512 101.013 498.649 101.013 498.923 101.158C500.293 101.304 501.663 101.158 503.171 100.868C504.678 100.577 506.322 99.8503 508.104 98.9783L508.789 98.5423C509.063 98.2516 509.474 97.8156 509.748 97.5249C510.296 96.9436 510.981 96.3623 511.803 95.7809C512.626 95.1996 513.311 94.7636 514.27 94.6183C515.092 94.3276 515.914 94.1823 516.874 94.1823C517.422 94.1823 517.97 94.3276 518.518 94.3276C518.929 94.3276 519.34 94.4729 519.751 94.6183C520.436 94.7636 521.258 94.9089 521.944 95.3449C522.492 95.6356 522.903 95.9263 523.314 96.2169C523.451 96.3623 523.588 96.5076 523.725 96.6529L524.273 96.0716C524.41 95.9263 524.547 95.7809 524.821 95.6356C525.506 95.0543 527.699 95.4903 528.11 96.0716L528.247 96.2169C528.521 96.5076 528.658 96.9436 528.658 97.2343C528.658 97.5249 528.521 97.8156 528.384 98.1063C527.836 98.5423 527.425 99.1236 527.151 99.5596C526.877 100.141 526.603 100.722 526.603 101.304C526.466 102.03 526.466 102.466 526.74 102.902C526.877 103.193 527.014 103.484 527.288 103.629C527.562 103.774 527.973 103.774 528.521 103.629C529.069 103.484 529.617 103.338 530.302 103.048C536.469 100.141 567.574 77.4689 571.274 82.4103C571.548 82.7009 571.685 83.1369 571.685 83.4276C571.685 83.8636 568.807 84.7356 566.341 85.4623C554.145 89.0956 544.827 97.6703 534.139 103.774C531.673 105.228 527.425 107.989 523.999 104.937C523.588 104.646 523.314 104.065 523.04 103.629C522.903 103.484 522.903 103.193 522.766 103.048C522.492 103.338 522.081 103.629 521.67 103.92C520.984 104.501 520.436 104.937 519.751 105.228C519.066 105.664 518.381 106.1 517.696 106.39C517.01 106.681 516.325 107.117 515.64 107.408C514.955 107.698 514.407 107.989 513.722 108.134C512.626 108.425 510.296 108.425 509.063 107.698C508.378 107.262 507.83 106.826 507.418 106.245C507.144 105.664 506.87 104.937 506.87 104.21V103.92C506.185 104.065 505.5 104.21 504.815 104.356C502.897 104.646 501.389 104.646 499.882 104.501C498.512 104.21 497.141 103.774 496.182 102.902H496.045C495.771 103.193 495.497 103.484 495.086 103.774C494.812 104.065 494.401 104.356 493.99 104.646C493.579 104.937 493.305 105.228 492.893 105.373C492.482 105.664 492.071 105.809 491.66 106.1C491.249 106.39 490.838 106.536 490.427 106.681C490.016 106.826 489.605 106.972 489.194 107.117C488.371 107.408 487.686 107.408 487.275 107.262C487.001 107.117 486.59 106.972 486.453 106.681C486.316 106.39 486.042 106.1 485.905 105.664C485.768 105.228 485.768 104.792 485.631 104.356C485.494 103.92 485.494 103.338 485.494 102.902C485.494 102.321 485.494 101.885 485.494 101.304C485.494 100.722 485.631 100.286 485.631 99.7049L485.768 98.6876C485.494 98.9783 485.083 99.2689 484.672 99.4143C484.124 99.8503 483.438 100.286 482.616 100.722L482.342 100.868L481.657 101.449H481.383L480.287 102.03C479.465 102.466 478.505 102.757 477.546 103.193C476.587 103.484 475.628 103.92 474.669 104.21C473.709 104.501 472.75 104.646 471.791 104.937C470.832 105.082 469.873 105.228 469.05 105.228C468.228 105.228 467.543 105.228 466.858 105.082C465.762 105.954 464.802 106.536 463.843 106.972C462.884 107.408 461.925 107.553 460.966 107.553C460.006 107.553 459.321 107.408 458.499 107.117C457.814 106.972 457.266 106.536 456.718 106.245C456.033 105.664 455.484 105.082 455.073 104.501C454.662 103.92 454.525 103.193 454.388 102.466C454.388 102.176 454.388 101.74 454.388 101.449H454.251C446.715 105.082 439.452 107.408 431.641 110.314C431.504 110.314 431.504 110.314 431.367 110.314C430.682 113.221 429.723 115.837 428.353 118.017C427.668 119.18 426.982 120.197 426.297 121.069C425.612 121.941 424.79 122.813 423.968 123.54C423.146 124.266 422.323 124.848 421.501 125.429C420.679 126.01 419.857 126.446 418.898 126.592C416.705 127.464 414.513 127.173 412.457 126.592C411.909 126.446 411.361 126.156 410.813 125.865C410.265 125.574 409.717 125.138 409.306 124.557C408.758 123.976 408.346 123.394 408.209 122.813C408.072 122.232 407.798 121.505 407.798 120.778C407.798 120.052 407.935 119.18 408.072 118.453C408.346 117.726 408.758 117.145 409.443 116.418C409.991 115.837 410.676 115.256 411.498 114.82C412.183 114.238 413.005 113.802 413.965 113.366C414.787 112.93 415.746 112.494 416.705 112.058C417.664 111.622 418.761 111.186 419.72 110.896C420.816 110.46 421.775 110.169 422.735 109.733C423.694 109.442 424.653 109.006 425.612 108.57C426.023 108.425 427.257 108.134 427.668 107.989C427.805 107.262 427.942 106.681 427.942 106.1C428.079 105.518 428.079 104.792 428.216 104.356C428.353 103.774 428.353 103.193 428.353 102.612C428.353 102.03 428.49 101.449 428.49 100.868L428.764 97.0889C428.764 96.5076 428.901 95.7809 428.901 95.0543C428.216 95.6356 427.531 96.3623 426.845 96.9436C426.16 97.6703 425.338 98.2516 424.379 98.9783L423.283 99.7049C422.872 100.141 422.323 100.577 421.912 100.868C421.09 101.449 420.268 102.176 419.446 102.757C418.624 103.338 417.802 103.92 416.842 104.356C416.02 104.937 415.061 105.373 414.239 105.809C413.417 106.245 412.594 106.536 411.772 106.972C410.95 107.262 410.128 107.553 409.306 107.698C408.484 107.844 407.661 107.989 406.976 107.989C406.291 107.989 405.606 107.989 404.921 107.844C404.784 107.844 404.647 107.698 404.51 107.698C404.373 107.698 404.099 107.553 403.962 107.553C403.688 107.553 403.55 107.408 403.276 107.408C402.591 107.262 402.043 106.972 401.632 106.681C401.221 106.39 400.673 105.809 400.399 105.373C400.125 104.937 399.851 104.501 399.714 104.065C399.303 104.356 398.754 104.646 398.343 104.792C397.247 105.373 396.425 105.809 395.603 105.954C394.781 106.1 393.958 106.245 393.273 106.1C392.588 105.954 392.04 105.664 391.492 105.228C391.218 104.937 390.807 104.646 390.533 104.21C390.259 103.774 390.122 103.338 389.848 102.902C389.574 102.321 389.574 101.885 389.574 101.158C389.574 100.722 389.574 100.286 389.711 99.8503C387.381 101.594 385.189 102.466 382.311 103.484C381.352 103.774 380.393 104.21 379.57 104.501C378.611 104.792 377.652 104.937 376.693 105.228C375.734 105.373 374.774 105.518 373.952 105.518C373.13 105.518 372.445 105.518 371.623 105.373C370.527 106.245 369.567 106.826 368.608 107.262C367.649 107.698 366.69 107.844 365.73 107.844C364.771 107.844 364.086 107.698 363.401 107.408C363.127 107.408 362.853 107.262 362.716 107.262H362.853C362.442 107.262 362.168 107.117 361.757 106.972C361.072 106.681 360.523 106.39 359.975 106.1C359.29 105.518 358.742 104.937 358.331 104.356C358.057 103.92 357.92 103.484 357.783 103.048C356.824 103.484 355.864 104.065 354.768 104.501C353.398 105.082 352.028 105.664 350.52 106.1C349.013 106.681 347.643 107.117 346.135 107.408C344.628 107.698 343.121 108.134 341.613 108.28C338.736 108.716 336.269 108.716 334.351 108.134C333.94 107.989 333.529 107.989 333.118 107.844H332.981C333.118 107.844 333.392 107.989 333.529 107.989H333.666C333.255 107.844 332.844 107.844 332.432 107.698C331.884 107.553 331.473 107.408 331.062 107.262C330.514 106.972 330.103 106.681 329.692 106.39C329.281 106.1 328.87 105.664 328.596 105.082C328.322 104.501 328.047 104.065 328.047 103.484C328.047 103.338 327.91 103.193 327.91 102.902C326.54 103.774 325.033 104.501 323.389 105.228C322.429 105.664 321.47 106.1 320.511 106.39C319.552 106.681 318.455 107.117 317.496 107.408C316.4 107.698 315.441 107.989 314.482 107.989C313.385 108.134 312.426 108.28 311.467 108.28C310.782 108.28 310.097 108.134 309.412 108.134C309 108.134 308.589 107.989 308.315 107.844C308.041 107.844 307.767 107.698 307.356 107.698L307.63 107.844C306.945 107.698 306.397 107.553 305.712 107.262C305.027 106.972 304.479 106.681 303.93 106.39C303.382 106.1 302.834 105.664 302.286 105.228C301.738 104.792 301.327 104.356 300.916 103.774L300.779 103.629C281.458 110.896 264.055 114.384 246.652 117C237.745 121.796 228.29 125.72 221.987 128.045C217.739 129.644 213.354 130.806 208.969 131.678L208.147 134.149C207.873 134.44 207.599 134.73 207.325 134.876C207.188 135.021 206.914 135.021 206.777 134.876C206.503 134.876 206.366 134.73 206.092 134.585C205.955 134.585 205.818 134.585 205.681 134.585C205.544 134.585 205.544 134.585 205.407 134.44C205.269 134.44 205.269 134.44 205.132 134.44C204.721 131.969 204.584 131.824 204.31 131.824ZM7.12551 132.405C6.98848 132.26 6.85145 132.114 6.71442 131.824C6.57739 131.533 6.44036 131.097 6.44036 130.661C6.57739 130.225 6.71442 129.789 7.12551 129.498C7.5366 129.208 8.08471 129.208 8.4958 129.208C13.7029 127.754 18.91 126.301 24.2541 125.138C32.6129 107.989 41.9309 90.8396 51.6599 74.4169H51.3859C34.2573 73.6903 15.7583 70.9289 1.23326 60.4649C0.822174 60.1743 0.548116 59.8836 0.274058 59.4476C0.274058 59.1569 0.137029 58.8663 0 58.4303C0 58.1396 0 57.7036 0.137029 57.4129C0.274058 57.1223 0.548116 56.6863 0.959203 56.5409C1.23326 56.3956 1.64435 56.2503 2.05544 56.2503C2.46652 56.2503 2.87761 56.3956 3.2887 56.5409C3.69978 56.6863 4.11087 56.9769 4.52196 57.4129C6.16631 58.5756 7.81065 59.7383 9.455 60.6103C21.5136 67.4409 40.4236 70.2023 54.4005 70.2023C62.8963 55.6689 76.0511 39.9729 87.8356 28.7823C97.4276 19.7716 123.874 -3.04575 139.359 1.16892C147.991 3.63959 148.265 15.8476 145.251 23.8409C134.014 54.0703 85.2321 74.8529 56.593 74.8529C46.8639 91.1303 38.5052 106.826 29.7353 123.83C55.3597 117.726 83.7247 110.896 109.897 110.169C115.378 110.024 121.545 110.024 127.026 111.332C127.985 111.477 128.67 111.622 129.355 112.64C129.629 113.076 129.766 113.657 129.629 114.238C129.492 115.11 129.218 115.692 128.67 115.982C128.259 116.273 127.848 116.128 127.437 115.982C126.204 115.546 125.382 115.401 124.148 115.256C123.874 115.256 123.463 115.11 123.052 115.11C119.078 114.674 114.693 114.82 110.856 114.82C82.6285 115.546 54.8116 122.668 27.2688 129.062C27.1317 129.208 26.9947 130.225 25.8985 130.661C25.3504 130.806 24.8023 130.661 24.2541 130.08C19.4581 131.242 14.6621 132.55 9.86609 134.004H9.72906H9.59203C8.90689 134.004 8.35877 133.858 7.94768 133.568C7.5366 133.277 7.26254 132.841 7.12551 132.405ZM129.355 4.94759C116.338 9.30759 101.264 22.3876 90.8503 32.2703C82.0804 40.8449 65.7739 59.7383 58.9225 70.6383C71.9402 70.2023 90.1651 63.2263 109.897 50.1463C126.752 38.9556 140.729 20.2076 139.77 10.7609C139.084 4.07559 133.466 3.63959 129.355 4.94759ZM213.765 115.546C218.424 114.965 222.535 114.384 227.605 113.802C232.264 113.221 237.06 112.64 241.719 112.058C259.122 102.612 274.058 90.8396 258.163 85.0263C256.244 84.2996 254.6 84.8809 252.682 84.8809C251.722 84.8809 250.763 83.8636 250.763 82.8463C250.763 82.4103 251.037 81.8289 251.448 81.6836C251.722 81.3929 252.133 81.5383 252.545 81.3929C278.58 78.4863 348.739 18.0276 293.242 5.67425C272.688 1.02359 247.063 7.27292 230.346 17.5916C199.925 36.3396 214.039 63.5169 252.27 42.7343C253.504 40.9903 255.011 39.3916 256.381 37.7929C260.903 32.4156 272.277 18.6089 278.032 18.1729C283.513 17.7369 282.006 22.3876 279.676 25.8756C275.428 32.2703 265.699 39.3916 259.533 43.6063C258.574 44.1876 257.478 44.6236 256.518 45.2049C239.801 67.4409 224.317 89.8223 213.765 115.546ZM303.519 97.5249L304.204 97.2343L304.616 96.9436L305.849 96.2169L307.082 95.3449C307.493 95.0543 307.904 94.7636 308.178 94.4729C308.589 94.1823 308.863 93.8916 309.137 93.6009C309.412 93.3103 309.549 93.0196 309.686 92.7289C309.823 92.5836 309.823 92.2929 309.823 92.1476C309 92.0023 308.315 92.0023 307.63 92.2929C306.945 92.5836 306.123 93.0196 305.575 93.7463C304.89 94.4729 304.478 95.1996 304.067 95.9263C303.793 96.5076 303.656 96.9436 303.519 97.5249ZM233.634 116.273C231.716 116.564 229.798 116.709 227.879 117C222.535 117.581 217.465 118.453 212.258 119.325C211.436 121.505 210.614 123.685 209.791 125.865C213.354 125.138 223.22 121.36 233.634 116.273ZM362.99 102.321C363.812 102.321 364.497 102.176 365.319 102.03C366.005 101.885 366.553 101.594 367.238 101.158C366.69 100.722 366.279 100.141 366.005 99.5596C365.593 98.8329 365.456 98.1063 365.319 97.3796C365.182 96.6529 365.182 95.9263 365.319 95.1996C364.908 95.6356 364.497 95.9263 364.086 96.3623C363.538 96.7983 363.127 97.2343 362.579 97.6703C362.168 98.3969 361.894 99.1236 361.894 99.7049C361.894 100.286 362.031 100.868 362.168 101.449C362.442 101.885 362.716 102.176 362.99 102.321ZM462.336 101.158C461.788 100.722 461.377 100.141 461.103 99.5596C460.692 98.8329 460.418 98.1063 460.418 97.3796C460.281 96.6529 460.418 95.9263 460.418 95.1996C460.006 95.6356 459.458 95.9263 459.184 96.3623C458.088 97.3796 457.129 97.8156 456.992 99.7049C456.855 100.286 456.992 100.868 457.266 101.449C458.225 103.338 461.24 101.74 462.336 101.158ZM359.153 67.4409C359.701 66.8596 360.249 66.2783 360.797 65.6969C361.346 65.1156 361.757 64.6796 362.031 64.0983C362.305 63.5169 362.716 63.0809 362.99 62.6449C363.264 62.2089 363.675 61.6276 363.949 61.1916L364.634 60.3196L364.771 60.1743H364.634C363.127 60.9009 361.62 61.9183 360.112 63.0809C351.616 69.1849 343.669 79.0676 337.64 87.7876L336.68 89.0956C337.503 88.5143 338.325 87.7876 339.147 86.9156C346.272 80.9569 352.713 74.2716 359.153 67.4409ZM373.541 90.4036C372.993 90.2583 372.308 90.6943 371.623 91.4209C371.349 91.8569 370.938 92.2929 370.664 92.7289C370.389 93.1649 370.115 93.7463 369.978 94.3276C369.704 94.9089 369.704 95.4903 369.567 96.0716C369.43 96.6529 369.43 97.2343 369.43 97.8156C369.43 98.3969 369.567 98.8329 369.704 99.1236C369.841 99.4143 370.115 99.7049 370.389 99.8503C370.938 99.1236 371.486 98.3969 372.034 97.3796C372.582 96.3623 372.993 95.1996 373.267 94.1823C373.404 93.6009 373.541 93.1649 373.678 92.7289C373.815 92.2929 373.815 91.8569 373.815 91.4209C373.815 91.1303 373.678 90.8396 373.678 90.5489C373.678 90.4036 373.678 90.4036 373.541 90.4036ZM428.216 109.006L425.749 110.024L422.598 111.186C421.501 111.477 420.542 111.913 419.72 112.349C418.761 112.785 417.939 113.221 417.116 113.657C415.472 114.529 414.102 115.546 413.005 116.418C412.457 116.854 412.183 117.436 411.909 117.872C411.772 118.308 411.635 118.744 411.635 119.18C411.635 119.761 411.772 120.197 411.909 120.633C412.457 121.941 414.513 122.377 415.746 122.232C416.294 122.086 416.979 121.941 417.664 121.65C418.35 121.36 419.035 121.069 419.72 120.633C420.405 120.197 421.09 119.616 421.775 119.034C422.46 118.453 423.009 117.726 423.694 117C424.379 116.273 424.927 115.401 425.475 114.529C426.023 113.657 426.571 112.64 427.12 111.622C427.531 110.75 427.942 109.878 428.216 109.006ZM468.502 90.4036C467.954 90.2583 467.269 90.6943 466.584 91.4209C466.31 91.8569 465.899 92.2929 465.625 92.7289C465.351 93.1649 465.077 93.7463 464.939 94.3276C464.802 94.9089 464.665 95.4903 464.528 96.0716C464.391 96.6529 464.391 97.2343 464.391 97.8156C464.391 98.3969 464.528 98.8329 464.665 99.1236C464.802 99.4143 465.077 99.7049 465.351 99.8503C465.899 99.1236 466.447 98.3969 466.995 97.3796C467.543 96.3623 467.954 95.1996 468.228 94.1823C468.365 93.6009 468.502 93.1649 468.639 92.7289C468.776 92.2929 468.776 91.8569 468.776 91.4209C468.776 91.1303 468.776 90.8396 468.639 90.5489C468.776 90.4036 468.639 90.4036 468.502 90.4036ZM516.874 95.4903V95.6356C516.737 95.7809 516.736 95.7809 516.599 95.9263C515.092 97.2343 513.585 98.3969 512.078 99.2689C511.666 99.8503 511.392 100.286 511.118 100.868C510.844 101.304 510.707 101.885 510.57 102.321C510.433 102.757 510.433 103.193 510.57 103.484C510.707 103.774 510.844 103.92 510.981 104.065C511.392 104.21 511.803 104.21 512.352 104.065C512.9 103.92 513.448 103.774 514.133 103.484C514.818 103.193 515.503 102.757 516.188 102.321C516.874 101.885 517.559 101.449 518.244 101.013C518.929 100.577 519.614 99.9956 520.299 99.5596C520.984 98.9783 521.532 98.5423 522.218 97.9609L523.04 97.2343C522.766 97.2343 522.629 97.2343 522.355 97.0889C521.807 96.7983 521.258 96.5076 520.71 96.0716C520.436 95.9263 520.162 95.7809 519.751 95.7809C519.34 95.6356 518.929 95.6356 518.381 95.6356C517.833 95.1996 517.422 95.3449 516.874 95.4903ZM498.238 90.9849C497.826 90.9849 497.552 91.1303 497.141 91.5663C496.73 91.8569 496.456 92.4383 496.045 93.1649C495.771 93.8916 495.497 94.6183 495.36 95.3449C495.223 95.9263 495.223 96.3623 495.223 96.9436C495.771 96.0716 496.319 95.3449 496.867 94.7636C497.415 93.8916 497.964 93.1649 498.238 92.5836C498.649 91.4209 498.649 90.9849 498.238 90.9849ZM206.64 120.197H206.366C202.392 120.924 191.567 123.104 188.826 126.01C188.552 126.301 188.278 126.737 188.278 127.028C188.278 129.498 202.529 127.173 204.173 126.882C205.269 123.685 205.955 122.086 206.64 120.197ZM91.3984 104.356C90.9873 103.92 90.7132 103.338 90.5762 102.902C90.4392 102.321 90.4392 101.74 90.4392 101.158C90.4392 101.013 90.5762 100.868 90.5762 100.577L90.4392 100.722C90.0281 101.013 88.5207 100.722 87.9726 100.577C87.6986 100.432 87.4245 100.286 87.1505 99.9956C86.8764 99.7049 86.8764 99.4143 86.8764 99.1236C86.8764 98.8329 87.0134 98.5423 87.2875 98.3969C87.8356 98.1063 88.2467 97.8156 88.6578 97.6703C89.0689 97.5249 89.3429 97.2343 89.617 97.0889L90.4392 96.5076L92.4946 94.7636C93.0427 94.3276 93.7279 93.8916 94.6871 93.1649C95.3722 92.7289 97.5647 93.3103 98.1128 94.0369C98.3868 94.4729 98.5239 94.7636 98.5239 95.0543C98.5239 95.3449 98.3868 95.6356 98.1128 95.7809C97.2906 96.6529 96.6055 97.3796 96.3314 98.1063C96.0574 98.8329 95.6463 99.5596 95.3722 100.432C94.8241 101.594 94.8241 102.466 95.0981 102.757L95.2352 102.902C95.9203 102.902 96.6055 102.757 97.4276 102.612L98.6609 102.176C99.072 102.03 99.346 102.03 99.6201 101.885C100.579 101.594 101.539 101.158 102.498 100.722C103.457 100.286 104.416 99.8503 105.512 99.2689C107.568 98.2516 109.486 97.0889 111.405 95.9263C111.953 95.1996 112.501 94.6183 113.186 94.0369C113.871 93.3103 114.693 92.8743 115.378 92.5836C116.064 92.2929 116.749 92.1476 117.434 92.1476C117.708 92.1476 118.119 92.1476 118.393 92.2929C118.53 92.2929 118.667 92.2929 118.941 92.4383H119.078C119.352 92.4383 119.763 92.5836 120.174 92.7289H120.311C120.586 92.8743 120.997 92.8743 121.271 93.0196H121.408C121.545 91.8569 121.682 90.8396 121.956 89.6769C122.367 88.2236 122.778 86.6249 123.463 85.0263C124.148 83.4276 124.696 81.9743 125.519 80.5209C126.204 79.0676 127.026 77.6143 127.848 76.4516C128.67 75.1436 129.492 73.9809 130.452 72.9636C131.411 71.9463 132.37 71.0743 133.329 70.4929C134.288 69.7663 135.248 69.4756 136.207 69.3303C138.536 69.1849 141.277 69.7663 141.962 72.5276C142.099 73.2543 142.099 74.1263 141.962 75.1436C141.825 76.0156 141.551 77.0329 141.14 78.0503C140.729 79.0676 140.318 80.0849 139.77 81.1023C139.221 82.1196 138.673 83.1369 137.988 84.1543C137.303 85.1716 136.618 86.3343 135.796 87.3516L133.603 90.4036L131.685 93.1649C131.274 93.7463 130.863 94.3276 130.452 94.9089C130.041 95.4903 129.492 96.0716 129.081 96.5076C128.533 97.0889 128.122 97.6703 127.574 98.2516L125.93 100.141V100.286C126.067 100.722 126.067 101.013 126.204 101.304C126.341 101.449 126.341 101.594 126.478 101.74C126.752 102.03 127.026 102.321 127.437 102.612C127.574 102.612 127.574 102.757 127.711 102.757C128.122 102.757 128.67 102.757 129.081 102.757C129.766 102.612 130.589 102.466 131.274 102.321C132.096 102.03 132.918 101.74 133.74 101.449C134.562 101.013 135.385 100.577 136.344 100.141L136.892 99.8503V99.7049C136.892 99.4143 137.029 99.1236 137.303 98.9783C137.851 98.6876 138.262 98.3969 138.673 98.2516C139.084 98.1063 139.359 97.8156 139.633 97.6703L140.455 97.0889L142.51 95.3449C143.058 94.9089 143.743 94.4729 144.703 93.7463C144.977 93.6009 145.388 93.4556 145.662 93.6009C145.662 93.6009 145.799 93.6009 145.799 93.7463C145.936 93.7463 146.073 93.7463 146.21 93.7463C146.347 93.7463 146.484 93.8916 146.758 94.0369C146.895 94.0369 147.169 94.0369 147.443 94.0369C147.717 94.1823 147.991 94.3276 148.265 94.7636C148.539 95.1996 148.676 95.4903 148.676 95.7809C148.676 96.0716 148.539 96.3623 148.265 96.5076C147.443 97.2343 146.758 98.1063 146.484 98.6876C146.21 99.4143 145.799 100.141 145.525 101.013C145.114 102.176 144.977 103.048 145.251 103.338L145.388 103.484C146.073 103.484 146.758 103.338 147.58 103.193L148.814 102.757C149.225 102.612 149.499 102.612 149.773 102.466C150.732 102.176 151.691 101.74 152.65 101.304C153.61 100.868 154.569 100.432 155.665 99.8503C156.898 99.1236 158.269 98.5423 159.502 97.8156L160.05 97.2343C160.598 96.6529 161.283 96.0716 162.105 95.4903C162.928 94.9089 163.75 94.4729 164.572 94.1823C165.394 93.8916 166.216 93.7463 167.175 93.7463C167.724 93.7463 168.272 93.7463 168.82 93.8916C170.327 94.0369 172.245 94.6183 173.479 95.6356C173.616 95.7809 173.753 95.9263 173.89 96.0716L174.438 95.4903C174.575 95.3449 174.712 95.1996 174.986 95.0543C175.671 94.6183 177.864 94.9089 178.275 95.4903L178.412 95.6356C178.686 95.9263 178.823 96.3623 178.823 96.6529C178.823 96.9436 178.686 97.2343 178.549 97.5249C178.001 97.9609 177.59 98.5423 177.316 98.9783C177.041 99.5596 176.767 100.141 176.767 100.722C176.63 101.304 176.63 101.885 176.904 102.321C176.904 102.466 177.042 102.612 177.042 102.612C177.59 102.466 178.138 102.321 178.823 102.03C179.508 101.74 180.193 101.304 180.878 101.013C181.563 100.577 182.386 100.141 183.071 99.7049C183.756 99.2689 184.441 98.8329 185.126 98.3969C185.811 97.9609 186.497 97.5249 187.045 97.0889C187.73 96.6529 188.141 96.2169 188.552 95.9263C188.963 95.6356 189.237 95.3449 189.374 95.1996C190.196 94.7636 193.211 95.4903 193.211 97.0889C193.211 97.3796 193.074 97.6703 192.8 97.8156C192.252 98.2516 191.293 98.9783 190.059 99.8503C189.374 100.432 188.826 100.868 188.004 101.304C187.319 101.74 186.634 102.321 185.811 102.757C185.126 103.193 184.304 103.629 183.482 104.065C180.467 105.518 178.96 106.245 175.26 105.228C174.712 105.082 174.164 104.792 173.753 104.501C173.342 104.21 173.068 103.629 172.794 103.048C172.657 102.902 172.657 102.612 172.52 102.466C172.245 102.757 171.834 103.048 171.423 103.338C170.738 103.774 170.19 104.356 169.505 104.646C168.82 104.937 168.135 105.518 167.449 105.809C166.764 106.1 166.079 106.536 165.394 106.826C163.75 107.553 160.872 108.28 158.954 106.972C158.269 106.536 157.72 106.1 157.309 105.518C157.035 104.937 156.761 104.21 156.761 103.484V103.338C156.076 103.774 155.254 104.065 154.432 104.356C153.335 104.792 152.239 105.228 151.143 105.518C148.128 106.39 146.758 106.681 143.606 105.954C142.784 105.809 142.099 105.373 141.688 104.792C141.277 104.356 141.003 103.774 140.866 103.338C140.729 103.048 140.729 102.612 140.729 102.176C140.455 102.321 140.181 102.612 139.77 102.757C138.673 103.338 137.714 103.92 136.755 104.356C135.659 104.792 134.7 105.228 133.74 105.518C132.781 105.809 131.685 105.954 130.863 105.954C129.904 105.954 128.944 105.809 128.122 105.664C127.985 105.664 127.985 105.664 127.848 105.664C127.574 105.664 127.3 105.518 127.163 105.518H127.3C127.026 105.518 126.752 105.373 126.478 105.373C125.519 105.082 124.833 104.646 124.148 104.065C123.874 103.774 123.6 103.484 123.326 103.048L121.956 104.21C121.408 104.646 120.86 105.082 120.311 105.518C119.763 105.954 119.215 106.39 118.667 106.681C118.119 107.117 117.571 107.408 117.023 107.698C116.475 107.989 115.927 108.28 115.378 108.425C114.008 109.006 110.445 108.57 109.075 107.117C108.801 106.826 108.527 106.39 108.39 105.954C108.253 105.518 108.116 105.082 108.116 104.792C108.116 104.356 108.116 103.92 108.116 103.484C108.116 103.338 108.116 103.048 108.253 102.902H108.116C107.02 103.484 106.06 103.92 104.827 104.356C103.731 104.792 102.635 105.228 101.539 105.518C100.442 105.809 99.346 106.1 98.3868 106.245C96.8795 106.536 96.0574 106.39 94.55 105.954H94.413C94.276 105.954 94.1389 105.954 93.8649 105.809C92.6316 105.228 91.9465 104.937 91.3984 104.356ZM95.0981 88.2236C94.9611 88.0783 94.9611 87.9329 94.9611 87.6423C94.9611 87.3516 95.0981 87.2063 95.0981 87.0609C95.7833 86.3343 96.1944 85.8983 96.8795 85.0263C97.1536 84.7356 97.2906 84.2996 97.5647 84.0089C97.8387 83.7183 97.9758 83.2823 98.1128 82.7009C98.2498 82.2649 98.3868 81.9743 98.6609 81.9743C99.209 81.8289 101.676 82.7009 102.224 83.4276C102.361 83.7183 102.361 84.0089 102.224 84.2996C101.401 86.7703 100.305 88.3689 99.072 89.2409C98.2498 89.9676 95.6463 89.5316 95.0981 88.2236ZM124.97 93.7463C125.245 93.4556 125.519 93.0196 125.793 92.7289C126.341 92.0023 127.026 91.1303 127.711 90.2583C128.396 89.3863 128.944 88.5143 129.629 87.6423C130.315 86.7703 130.863 85.7529 131.548 84.8809C132.233 84.0089 132.781 83.1369 133.329 82.1196C133.877 81.2476 134.425 80.3756 134.974 79.5036C135.522 78.6316 135.933 77.9049 136.207 77.0329C136.618 76.3063 136.892 75.5796 137.166 74.9983C137.44 74.4169 137.577 73.8356 137.714 73.2543C137.851 72.8183 137.714 72.3823 137.577 72.0916V71.9463C137.303 71.9463 137.029 72.0916 136.755 72.2369C136.07 72.5276 135.248 73.2543 134.425 74.1263C133.603 74.9983 132.781 76.0156 131.959 77.1783C131.137 78.3409 130.452 79.6489 129.629 80.9569C128.944 82.2649 128.259 83.7183 127.711 85.1716C127.163 86.6249 126.615 88.0783 126.067 89.5316C125.519 90.9849 125.245 92.4383 124.97 93.7463ZM120.723 96.2169C120.311 96.2169 120.037 95.9263 120.037 95.3449C119.9 95.1996 119.763 95.0543 119.626 95.0543H119.489H119.352C118.53 94.9089 117.571 95.1996 116.475 96.2169C115.927 96.7983 115.378 97.3796 114.83 97.9609C114.282 98.5423 113.871 99.2689 113.46 99.9956C112.501 101.304 111.953 102.612 111.679 103.484C111.542 104.21 111.542 104.646 111.679 105.082C111.816 105.082 111.953 104.937 112.227 104.792C112.775 104.501 113.186 104.21 113.734 103.92C114.282 103.629 114.83 103.193 115.378 102.902C115.927 102.466 116.475 102.176 117.023 101.74C117.571 101.304 118.119 100.868 118.53 100.432C119.078 99.9956 119.489 99.5596 119.9 99.1236C120.311 98.8329 120.586 98.3969 120.997 98.1063L120.723 96.2169ZM160.324 104.21C160.872 104.065 161.557 103.92 162.105 103.484C162.653 103.048 163.339 102.757 164.161 102.321C164.846 101.885 165.531 101.449 166.216 101.013C166.901 100.577 167.587 99.9956 168.272 99.5596C168.957 98.9783 169.642 98.5423 170.19 97.9609L171.012 97.2343C170.875 97.2343 170.601 97.2343 170.327 97.0889C166.49 94.9089 163.75 97.2343 161.694 99.9956C161.283 100.577 161.009 101.013 160.735 101.594C160.461 102.176 160.324 102.612 160.187 103.048C160.05 103.484 160.05 103.774 160.187 104.21C160.324 104.065 160.324 104.065 160.324 104.21ZM144.84 88.6596C144.703 88.5143 144.566 88.3689 144.566 88.2236C144.429 88.0783 144.429 87.9329 144.429 87.6423C144.429 87.3516 144.429 87.2063 144.566 87.0609C144.703 86.9156 144.84 86.9156 144.977 86.9156L146.347 85.1716C146.621 84.8809 146.895 84.4449 147.032 84.1543C147.169 83.8636 147.443 83.4276 147.58 82.8463C147.717 82.4103 147.854 82.1196 148.128 82.1196C148.265 82.1196 148.539 82.1196 148.676 82.2649C148.951 82.1196 149.225 82.2649 149.636 82.5556C149.636 82.5556 149.773 82.5556 149.773 82.4103C150.047 82.2649 150.321 82.4103 150.732 82.7009C151.143 82.9916 151.554 83.1369 151.691 83.4276C151.965 83.7183 151.965 84.0089 151.691 84.2996C150.869 86.7703 149.773 88.3689 148.539 89.2409C148.265 89.5316 147.854 89.5316 147.58 89.5316C147.443 89.5316 147.169 89.3863 147.032 89.2409C146.895 89.3863 146.758 89.3863 146.484 89.2409C146.347 89.2409 146.347 89.2409 146.21 89.0956C146.073 89.0956 145.936 89.0956 145.936 89.0956C145.388 89.2409 145.114 89.0956 144.84 88.6596ZM263.918 36.6303C267.755 33.5783 272.551 29.6543 275.702 25.8756C276.388 25.1489 276.936 24.2769 277.347 23.5503C276.388 24.1316 275.565 24.7129 274.88 25.4396C270.221 29.3636 267.755 31.9796 263.918 36.6303Z" fill="white"/>
<path d="M139.221 160.329H137.85V150.155H139.495V160.329H139.221ZM106.882 154.951V153.789H127.436V155.097H106.882V154.951ZM427.119 154.951V153.789H447.673V155.097H427.119V154.951ZM139.221 148.702H137.85V146.377H139.495V148.702H139.221ZM154.705 160.329H153.335V150.155H154.979V151.027C155.116 150.882 155.253 150.737 155.253 150.737C155.39 150.591 155.527 150.591 155.664 150.446C155.801 150.301 155.938 150.301 156.075 150.301C156.212 150.301 156.349 150.155 156.486 150.155C156.623 150.155 156.76 150.01 157.034 150.01C157.171 150.01 157.309 150.01 157.583 150.01C157.72 150.01 157.857 150.01 158.131 150.01C158.268 150.01 158.405 150.01 158.679 150.155C158.816 150.155 158.953 150.301 159.09 150.301C159.227 150.301 159.364 150.446 159.501 150.446C159.638 150.591 159.775 150.591 159.912 150.737C160.049 150.882 160.186 150.882 160.186 151.027C160.323 151.173 160.323 151.173 160.46 151.318C160.597 151.463 160.597 151.609 160.734 151.609C160.734 151.754 160.871 151.754 160.871 151.899C160.871 152.045 160.871 152.045 161.008 152.19C161.008 152.335 161.145 152.335 161.145 152.481C161.145 152.626 161.145 152.771 161.282 152.771V153.062V153.353C161.282 155.823 161.282 158.149 161.282 160.619H159.638V154.37C159.638 154.079 159.638 153.934 159.638 153.643C159.638 153.498 159.638 153.207 159.501 153.062C159.501 152.917 159.364 152.771 159.364 152.626C159.364 152.481 159.227 152.335 159.227 152.335C159.09 152.19 159.09 152.19 158.953 152.045C158.816 151.899 158.816 151.899 158.679 151.899C158.542 151.754 158.405 151.754 158.268 151.754C158.131 151.754 157.857 151.754 157.72 151.754C157.583 151.754 157.309 151.754 157.171 151.754C157.034 151.754 156.897 151.899 156.76 151.899C156.623 152.045 156.486 152.045 156.349 152.19C156.212 152.335 156.075 152.335 155.938 152.481C155.801 152.626 155.801 152.771 155.664 152.917C155.527 153.062 155.527 153.207 155.39 153.353C155.253 153.498 155.253 153.789 155.253 153.934C155.253 154.079 155.116 154.37 155.116 154.661V160.619H154.705V160.329ZM175.67 147.249H177.041V150.01H178.685V151.609H177.041V158.294V158.439V158.585V158.73V158.875H177.178H177.315H177.452C177.589 158.875 177.726 158.875 177.863 158.73L178.685 158.585V160.038C178.411 160.183 178.137 160.183 177.726 160.329C177.452 160.329 177.315 160.329 177.041 160.474C176.767 160.474 176.493 160.329 176.219 160.329C176.081 160.329 175.944 160.183 175.944 160.183C175.807 160.038 175.807 160.038 175.67 159.893C175.533 159.747 175.533 159.747 175.533 159.602C175.533 159.457 175.396 159.311 175.396 159.166C175.396 159.021 175.396 158.875 175.396 158.73C175.396 158.585 175.396 158.439 175.396 158.294V151.609H174.163V150.01H175.396V147.249H175.67ZM193.347 153.207C193.21 153.353 193.21 153.498 193.21 153.789C193.21 153.934 193.21 154.079 193.21 154.225H198.006C198.006 154.079 198.006 153.934 198.006 153.789C198.006 153.643 197.869 153.498 197.869 153.207C197.732 153.062 197.732 152.917 197.595 152.626C197.458 152.481 197.458 152.335 197.321 152.19C197.184 152.045 197.047 151.899 197.047 151.899C196.91 151.754 196.773 151.754 196.636 151.609C196.499 151.463 196.362 151.463 196.225 151.463C196.088 151.463 195.951 151.463 195.677 151.463C195.54 151.463 195.266 151.463 195.129 151.463C194.991 151.463 194.854 151.609 194.717 151.609C194.58 151.609 194.443 151.754 194.306 151.899C194.169 152.045 194.032 152.045 193.895 152.19C193.758 152.335 193.621 152.481 193.621 152.771C193.484 152.917 193.484 153.062 193.347 153.207ZM199.513 155.678H193.21C193.21 155.823 193.21 156.114 193.21 156.259C193.21 156.55 193.347 156.695 193.347 156.986C193.347 157.131 193.484 157.422 193.621 157.567C193.758 157.713 193.758 157.858 193.895 158.149C194.032 158.294 194.169 158.439 194.306 158.585C194.443 158.73 194.58 158.73 194.717 158.875C194.854 159.021 194.991 159.021 195.266 159.021C195.403 159.021 195.54 159.021 195.814 159.021C196.088 159.021 196.362 159.021 196.636 158.875C196.773 158.875 196.91 158.73 197.047 158.73C197.184 158.585 197.321 158.585 197.321 158.439C197.458 158.294 197.458 158.294 197.595 158.149C197.732 158.003 197.732 157.858 197.869 157.858C198.006 157.713 198.006 157.567 198.006 157.422C198.006 157.277 198.143 157.131 198.143 156.986V156.695H199.788V156.986C199.788 157.277 199.65 157.422 199.65 157.713C199.513 158.003 199.513 158.149 199.376 158.439C199.239 158.73 199.102 158.875 198.965 159.021C198.828 159.166 198.691 159.311 198.417 159.602C198.28 159.747 198.006 159.893 197.869 160.038C197.595 160.183 197.458 160.183 197.184 160.329C196.91 160.474 196.773 160.474 196.499 160.474C196.225 160.474 195.951 160.619 195.814 160.619C195.54 160.619 195.129 160.619 194.854 160.474C194.58 160.474 194.306 160.329 194.032 160.183C193.758 160.038 193.484 159.893 193.347 159.747C193.073 159.602 192.936 159.311 192.799 159.166C192.662 159.021 192.388 158.73 192.251 158.439C192.114 158.149 191.977 157.858 191.84 157.567C191.703 157.277 191.703 156.841 191.703 156.55C191.703 156.259 191.566 155.823 191.566 155.387C191.566 154.951 191.566 154.515 191.703 154.225C191.703 153.789 191.84 153.498 191.84 153.207C191.977 152.917 192.114 152.481 192.251 152.19C192.388 151.899 192.525 151.609 192.799 151.463C193.073 151.318 193.21 151.027 193.484 150.882C193.758 150.737 193.895 150.591 194.169 150.446C194.443 150.301 194.717 150.155 194.991 150.155C195.266 150.01 195.54 150.01 195.951 150.01C196.225 150.01 196.636 150.01 196.91 150.155C197.184 150.155 197.458 150.301 197.732 150.446C198.006 150.591 198.28 150.737 198.417 150.882C198.691 151.027 198.828 151.318 198.965 151.463C199.376 151.899 199.65 152.481 199.788 153.062C199.925 153.643 200.062 154.37 200.062 155.242V155.969H199.513V155.678ZM214.45 160.329H213.079V150.155H214.724V151.027C214.861 150.882 214.861 150.882 214.998 150.737C215.135 150.591 215.272 150.446 215.409 150.446C215.546 150.301 215.683 150.301 215.82 150.301C215.957 150.155 216.094 150.155 216.231 150.155C216.368 150.155 216.505 150.01 216.642 150.01C216.779 150.01 216.916 150.01 217.053 150.01H217.464V151.754H216.916C216.779 151.754 216.642 151.754 216.368 151.754C216.231 151.754 216.094 151.899 215.957 151.899C215.82 151.899 215.683 152.045 215.546 152.045C215.409 152.19 215.272 152.19 215.272 152.335C215.135 152.481 215.135 152.626 214.998 152.771C214.861 152.917 214.861 153.062 214.861 153.353C214.861 153.498 214.724 153.789 214.724 153.934C214.724 154.225 214.724 154.37 214.724 154.661V160.329H214.45ZM231.715 160.329H230.345V150.155H231.989V160.329H231.715ZM231.715 148.702H230.345V146.377H231.989V148.702H231.715ZM246.651 151.463C247.062 150.882 247.611 150.446 248.159 150.155C248.707 149.865 249.392 149.719 250.077 149.719C250.351 149.719 250.762 149.719 251.036 149.865C251.31 150.01 251.721 150.01 251.996 150.155C252.27 150.301 252.544 150.446 252.818 150.737C253.092 150.882 253.366 151.173 253.503 151.463C253.64 151.754 253.777 152.045 254.051 152.19C254.188 152.481 254.325 152.771 254.325 153.062C254.462 153.353 254.462 153.643 254.462 154.079C254.599 154.37 254.599 154.806 254.599 155.097C254.599 155.387 254.599 155.823 254.462 156.114C254.462 156.405 254.325 156.695 254.325 157.131C254.188 157.422 254.051 157.713 253.914 158.003C253.777 158.294 253.64 158.585 253.503 158.73C253.229 159.021 253.092 159.311 252.818 159.457C252.544 159.602 252.27 159.893 251.996 160.038C251.721 160.183 251.447 160.329 251.036 160.329C250.762 160.474 250.351 160.474 250.077 160.474C249.666 160.474 249.392 160.474 249.118 160.329C248.844 160.329 248.57 160.183 248.159 160.038C247.885 159.893 247.611 159.747 247.337 159.457C247.062 159.166 246.788 159.021 246.651 158.73C246.514 158.439 246.24 158.149 246.103 158.003C245.966 157.713 245.829 157.422 245.829 157.131C245.692 156.841 245.692 156.55 245.555 156.114C245.555 155.823 245.555 155.387 245.555 155.097C245.555 154.806 245.555 154.37 245.555 154.079C245.692 153.789 245.692 153.498 245.829 153.062C245.966 152.771 245.966 152.481 246.103 152.19C246.24 152.045 246.377 151.754 246.651 151.463ZM251.036 151.754C250.899 151.609 250.625 151.609 250.488 151.609C250.351 151.463 250.077 151.463 249.94 151.463C249.666 151.463 249.529 151.463 249.255 151.609C249.118 151.609 248.844 151.754 248.707 151.754C248.57 151.899 248.433 151.899 248.159 152.045C248.022 152.19 247.885 152.335 247.748 152.481C247.611 152.626 247.474 152.771 247.474 153.062C247.337 153.207 247.337 153.498 247.337 153.643C247.2 153.789 247.2 154.079 247.2 154.37C247.2 154.661 247.2 154.951 247.2 155.097C247.2 155.387 247.2 155.678 247.2 155.823C247.2 155.969 247.337 156.259 247.337 156.55C247.474 156.841 247.474 156.986 247.611 157.131C247.748 157.277 247.885 157.422 247.885 157.713C248.022 157.858 248.159 158.003 248.296 158.149C248.433 158.294 248.57 158.439 248.707 158.439C248.844 158.585 249.118 158.585 249.255 158.73C249.392 158.73 249.666 158.875 249.94 158.875C250.077 158.875 250.351 158.875 250.488 158.73C250.625 158.73 250.899 158.585 251.036 158.439C251.173 158.294 251.31 158.294 251.447 158.149C251.584 158.003 251.721 157.858 251.859 157.713C251.996 157.567 252.133 157.422 252.133 157.131C252.133 156.841 252.27 156.695 252.407 156.55C252.544 156.405 252.544 156.114 252.544 155.823C252.544 155.533 252.544 155.387 252.544 155.097C252.544 154.806 252.544 154.515 252.544 154.37C252.544 154.225 252.407 153.934 252.407 153.643C252.27 153.498 252.27 153.207 252.133 153.062C251.996 152.917 251.996 152.771 251.859 152.481C251.721 152.335 251.584 152.19 251.447 152.045C251.447 151.899 251.31 151.754 251.036 151.754ZM269.124 160.329H267.754V150.155H269.398V151.027C269.535 150.882 269.535 150.882 269.672 150.737C269.809 150.591 269.946 150.446 270.083 150.446C270.22 150.301 270.357 150.301 270.494 150.301C270.631 150.155 270.769 150.155 270.906 150.155C271.043 150.155 271.18 150.01 271.317 150.01C271.454 150.01 271.591 150.01 271.865 150.01H272.276V151.754H271.865C271.728 151.754 271.454 151.754 271.317 151.754C271.18 151.754 271.043 151.899 270.906 151.899C270.769 151.899 270.631 152.045 270.494 152.045C270.357 152.19 270.22 152.19 270.22 152.335C270.083 152.481 270.083 152.626 269.946 152.771C269.809 152.917 269.809 153.062 269.809 153.353C269.809 153.498 269.672 153.789 269.672 153.934C269.672 154.225 269.672 154.37 269.672 154.661V160.329H269.124ZM315.029 146.377H316.399V160.329H314.755V159.311C314.618 159.457 314.481 159.602 314.344 159.602C314.207 159.747 314.07 159.747 313.933 159.893C313.796 160.038 313.659 160.038 313.385 160.183C313.11 160.329 313.11 160.329 312.836 160.329C312.699 160.329 312.562 160.474 312.288 160.474C312.151 160.474 312.014 160.474 311.74 160.474C311.055 160.474 310.507 160.329 309.959 160.038C309.685 159.893 309.411 159.747 309.274 159.457C309 159.166 308.863 159.021 308.589 158.73C308.451 158.439 308.314 158.149 308.177 158.003C308.04 157.713 307.903 157.422 307.903 157.131C307.766 156.841 307.766 156.55 307.629 156.114C307.629 155.823 307.629 155.387 307.629 155.097C307.629 154.806 307.629 154.37 307.629 154.079C307.766 153.789 307.766 153.353 307.903 153.062C308.04 152.771 308.04 152.481 308.177 152.19C308.314 151.899 308.451 151.609 308.589 151.463C309 150.882 309.411 150.446 309.959 150.155C310.507 149.865 311.055 149.719 311.74 149.719C311.877 149.719 312.151 149.719 312.288 149.719C312.425 149.719 312.562 149.719 312.836 149.865C312.973 149.865 313.11 150.01 313.248 150.01C313.385 150.01 313.522 150.155 313.659 150.155C313.933 150.301 314.07 150.446 314.344 150.591C314.481 150.737 314.481 150.737 314.618 150.882V146.086H315.029V146.377ZM313.248 151.754C313.11 151.609 312.973 151.609 312.699 151.609C312.562 151.463 312.288 151.463 312.151 151.463C312.014 151.463 311.74 151.463 311.603 151.609C311.466 151.609 311.192 151.754 311.055 151.754C310.918 151.899 310.781 151.899 310.507 152.045C310.37 152.19 310.233 152.335 310.096 152.481C309.959 152.626 309.822 152.771 309.822 153.062C309.685 153.207 309.685 153.498 309.685 153.643C309.548 153.789 309.548 154.079 309.548 154.37C309.548 154.661 309.548 154.951 309.548 155.097C309.548 155.387 309.548 155.678 309.548 155.823C309.548 155.969 309.685 156.259 309.685 156.55C309.685 156.841 309.822 156.986 309.822 157.131C309.959 157.277 309.959 157.567 310.096 157.713C310.233 157.858 310.37 158.003 310.507 158.294C310.644 158.439 310.781 158.585 311.055 158.585C311.192 158.73 311.329 158.73 311.603 158.73C311.74 158.73 312.014 158.875 312.151 158.875C312.425 158.875 312.562 158.875 312.699 158.73C312.836 158.73 313.11 158.585 313.248 158.585C313.385 158.439 313.522 158.439 313.659 158.294C313.796 158.149 313.933 158.003 314.07 157.713C314.207 157.567 314.344 157.422 314.344 157.131C314.481 156.986 314.481 156.695 314.618 156.55C314.618 156.405 314.755 156.114 314.755 155.823C314.755 155.533 314.755 155.387 314.755 155.097C314.755 154.806 314.755 154.515 314.755 154.37C314.755 154.225 314.618 153.934 314.618 153.643C314.481 153.353 314.481 153.207 314.344 153.062C314.207 152.917 314.207 152.771 314.07 152.481C313.933 152.335 313.796 152.19 313.659 152.045C313.522 151.899 313.385 151.754 313.248 151.754ZM331.609 153.207C331.609 153.353 331.472 153.498 331.472 153.789C331.472 153.934 331.472 154.079 331.472 154.225H336.268C336.268 154.079 336.268 153.934 336.131 153.789C336.131 153.643 335.994 153.498 335.994 153.207C335.857 153.062 335.857 152.917 335.72 152.626C335.583 152.481 335.446 152.335 335.446 152.19C335.309 152.045 335.172 151.899 335.172 151.899C335.035 151.754 334.898 151.754 334.761 151.609C334.624 151.463 334.487 151.463 334.35 151.463C334.213 151.463 334.076 151.463 333.802 151.463C333.665 151.463 333.528 151.463 333.254 151.463C333.117 151.463 332.98 151.609 332.843 151.609C332.706 151.609 332.569 151.754 332.432 151.899C332.295 152.045 332.158 152.045 332.02 152.19C331.883 152.335 331.746 152.481 331.746 152.771C331.746 152.917 331.746 153.062 331.609 153.207ZM337.776 155.678H331.472C331.472 155.823 331.472 156.114 331.472 156.259C331.472 156.55 331.609 156.695 331.609 156.986C331.746 157.131 331.746 157.422 331.883 157.567C332.02 157.713 332.02 157.858 332.158 158.149C332.295 158.294 332.432 158.439 332.569 158.585C332.706 158.73 332.843 158.73 332.98 158.875C333.117 159.021 333.254 159.021 333.528 159.021C333.665 159.021 333.939 159.021 334.076 159.021C334.35 159.021 334.624 159.021 334.898 158.875C335.035 158.875 335.172 158.73 335.309 158.73C335.446 158.585 335.583 158.585 335.583 158.439C335.72 158.294 335.857 158.294 335.857 158.149C335.994 158.003 335.994 157.858 336.131 157.858C336.131 157.713 336.268 157.567 336.268 157.422C336.268 157.277 336.405 157.131 336.405 156.986V156.695H338.05V156.986C338.05 157.277 337.913 157.422 337.913 157.713C337.776 158.003 337.776 158.149 337.639 158.439C337.502 158.73 337.365 158.875 337.228 159.021C337.091 159.166 336.954 159.311 336.679 159.602C336.542 159.747 336.268 159.893 336.131 160.038C335.994 160.183 335.72 160.183 335.446 160.329C335.172 160.474 335.035 160.474 334.761 160.474C334.487 160.474 334.213 160.619 334.076 160.619C333.802 160.619 333.391 160.619 333.117 160.474C332.843 160.474 332.569 160.329 332.295 160.183C332.02 160.038 331.746 159.893 331.609 159.747C331.335 159.602 331.198 159.311 330.924 159.166C330.787 158.875 330.65 158.73 330.376 158.439C330.239 158.149 330.102 157.858 330.102 157.567C329.965 157.277 329.965 156.841 329.965 156.55C329.828 156.259 329.828 155.823 329.828 155.387C329.828 154.951 329.828 154.515 329.965 154.225C329.965 153.789 330.102 153.498 330.102 153.207C330.239 152.917 330.376 152.626 330.513 152.19C330.65 151.899 330.787 151.609 331.061 151.463C331.198 151.173 331.472 151.027 331.746 150.882C332.02 150.737 332.158 150.591 332.432 150.446C332.706 150.301 332.98 150.155 333.254 150.155C333.528 150.01 333.802 150.01 334.213 150.01C334.487 150.01 334.761 150.01 335.172 150.155C335.446 150.155 335.72 150.301 335.994 150.446C336.268 150.591 336.542 150.737 336.679 150.882C336.954 151.027 337.091 151.318 337.228 151.463C337.639 151.899 337.913 152.481 338.05 153.062C338.187 153.643 338.324 154.37 338.324 155.242V155.969H337.776V155.678ZM351.342 158.439C351.205 158.149 351.205 158.003 351.068 157.713C351.068 157.422 350.93 157.277 350.93 156.986V156.695H352.575V156.986C352.575 157.131 352.575 157.277 352.575 157.422C352.575 157.567 352.712 157.713 352.712 157.713C352.712 157.858 352.849 158.003 352.849 158.003C352.986 158.149 352.986 158.149 353.123 158.294C353.26 158.439 353.397 158.439 353.397 158.585C353.534 158.73 353.671 158.73 353.671 158.73C353.808 158.875 353.945 158.875 354.082 158.875C354.219 158.875 354.356 158.875 354.493 158.875C354.63 158.875 354.767 158.875 355.041 158.875C355.178 158.875 355.315 158.875 355.452 158.73C355.589 158.73 355.727 158.585 355.864 158.585C356.001 158.439 356.001 158.439 356.138 158.439C356.275 158.294 356.275 158.294 356.412 158.149C356.549 158.149 356.549 158.003 356.549 157.858C356.549 157.713 356.686 157.713 356.686 157.567C356.686 157.422 356.686 157.422 356.686 157.277C356.686 157.131 356.686 157.131 356.686 156.986C356.686 156.841 356.549 156.841 356.549 156.695C356.549 156.55 356.412 156.55 356.412 156.55L356.275 156.405C356.275 156.405 356.138 156.259 356.001 156.259C355.864 156.259 355.727 156.114 355.589 156.114C355.452 155.969 355.315 155.969 355.041 155.969L354.493 155.823H354.356C354.082 155.678 353.808 155.678 353.534 155.533C353.26 155.387 352.986 155.387 352.849 155.242C352.575 155.097 352.438 155.097 352.301 154.951C352.164 154.806 352.027 154.806 351.89 154.661C351.753 154.515 351.616 154.37 351.479 154.37C351.342 154.225 351.205 154.079 351.205 153.934C351.068 153.789 351.068 153.643 351.068 153.353C351.068 153.062 351.068 152.917 351.068 152.771C351.068 152.626 351.068 152.335 351.068 152.19C351.068 151.899 351.205 151.754 351.205 151.609C351.342 151.463 351.342 151.173 351.479 151.027C351.616 150.882 351.753 150.737 351.89 150.591C352.164 150.301 352.575 150.155 352.986 150.01C353.397 149.865 353.808 149.865 354.356 149.865C354.63 149.865 354.904 149.865 355.178 149.865C355.452 149.865 355.589 150.01 355.864 150.01C356.138 150.155 356.275 150.155 356.549 150.301C356.686 150.446 356.96 150.591 357.097 150.737C357.234 150.882 357.371 151.027 357.508 151.173C357.645 151.318 357.782 151.609 357.782 151.754C357.919 151.899 357.919 152.19 358.056 152.481C358.056 152.771 358.193 152.917 358.193 153.207V153.498H356.549V153.207C356.549 153.062 356.549 152.917 356.412 152.771C356.412 152.626 356.275 152.481 356.275 152.481C356.275 152.335 356.138 152.335 356.138 152.19C356.001 152.045 356.001 152.045 355.864 151.899C355.727 151.754 355.727 151.754 355.589 151.609C355.452 151.609 355.315 151.463 355.315 151.463C355.178 151.463 355.041 151.318 354.904 151.318C354.767 151.318 354.63 151.318 354.493 151.318C354.356 151.318 354.219 151.318 354.082 151.318C353.945 151.318 353.808 151.318 353.808 151.463C353.671 151.463 353.534 151.609 353.534 151.609C353.397 151.754 353.397 151.754 353.26 151.754C353.123 151.754 353.123 151.899 353.123 151.899C353.123 152.045 352.986 152.045 352.986 152.19C352.986 152.335 352.849 152.335 352.849 152.481C352.849 152.626 352.849 152.626 352.849 152.771C352.849 152.917 352.849 153.062 352.849 153.062C352.849 153.207 352.849 153.207 352.986 153.353C352.986 153.498 353.123 153.498 353.123 153.498C353.123 153.643 353.26 153.643 353.26 153.643C353.397 153.643 353.397 153.789 353.534 153.789C353.671 153.789 353.808 153.934 353.945 153.934L354.493 154.079L355.589 154.37C355.864 154.515 356.138 154.515 356.275 154.515C356.549 154.661 356.686 154.661 356.823 154.806C356.96 154.951 357.234 154.951 357.371 155.097C357.508 155.242 357.645 155.242 357.782 155.387C357.919 155.533 358.056 155.678 358.056 155.823C358.193 155.969 358.193 156.114 358.33 156.259C358.467 156.405 358.467 156.55 358.467 156.841C358.467 156.986 358.467 157.277 358.467 157.422C358.467 157.567 358.467 157.858 358.467 158.003C358.467 158.149 358.33 158.439 358.193 158.585C358.056 158.73 358.056 158.875 357.919 159.166C357.782 159.311 357.645 159.457 357.508 159.602C357.234 159.893 356.823 160.038 356.275 160.183C355.864 160.329 355.315 160.474 354.767 160.474C354.493 160.474 354.219 160.474 353.945 160.329C353.671 160.329 353.397 160.183 353.26 160.183C352.986 160.038 352.849 160.038 352.575 159.893C352.301 159.747 352.164 159.602 352.027 159.457C351.89 159.311 351.753 159.166 351.479 158.875C351.479 158.73 351.479 158.585 351.342 158.439ZM373.266 160.329H371.896V150.155H373.54V160.329H373.266ZM373.266 148.702H371.896V146.377H373.54V148.702H373.266ZM394.232 150.01H395.602V158.875C395.602 159.166 395.602 159.457 395.465 159.747C395.465 160.038 395.328 160.329 395.191 160.474C395.054 160.619 394.917 160.91 394.78 161.201C394.643 161.491 394.506 161.637 394.232 161.782C393.958 161.927 393.821 162.073 393.547 162.218C393.272 162.363 392.998 162.509 392.724 162.509C392.45 162.654 392.176 162.654 391.765 162.654C391.491 162.654 391.08 162.654 390.806 162.654C390.258 162.654 389.847 162.654 389.436 162.509C389.162 162.363 389.025 162.363 388.751 162.218C388.613 162.073 388.339 162.073 388.202 161.927C388.065 161.782 387.928 161.637 387.791 161.491C387.654 161.346 387.517 161.201 387.38 160.91C387.243 160.765 387.243 160.474 387.106 160.329C387.106 160.183 386.969 159.893 386.969 159.602V159.311H388.613V159.602C388.613 159.747 388.613 159.893 388.613 159.893C388.613 160.038 388.751 160.038 388.751 160.183C388.888 160.329 388.888 160.329 388.888 160.474C389.025 160.619 389.025 160.619 389.162 160.619C389.299 160.765 389.573 160.91 389.71 160.91C389.984 161.055 390.258 161.055 390.532 161.055C390.806 161.055 391.08 161.055 391.217 161.055C391.491 161.055 391.628 160.91 391.765 160.91C391.902 160.91 392.039 160.765 392.313 160.765C392.45 160.619 392.587 160.619 392.724 160.474C392.861 160.329 392.998 160.183 392.998 160.183C393.135 160.038 393.135 159.893 393.272 159.893C393.272 159.747 393.409 159.602 393.409 159.457C393.409 159.311 393.409 159.166 393.409 159.021V158.875L393.272 159.021C393.135 159.166 392.998 159.311 392.861 159.311C392.724 159.457 392.587 159.457 392.45 159.602C392.313 159.747 392.176 159.747 392.039 159.893C391.902 160.038 391.765 160.038 391.491 160.038C391.354 160.038 391.217 160.183 390.943 160.183C390.806 160.183 390.669 160.183 390.395 160.183C390.121 160.183 389.847 160.183 389.436 160.038C389.162 159.893 388.888 159.893 388.613 159.747C388.339 159.602 388.065 159.457 387.928 159.166C387.654 159.021 387.517 158.73 387.243 158.439C387.106 158.149 386.969 158.003 386.832 157.713C386.695 157.422 386.558 157.131 386.558 156.841C386.421 156.55 386.421 156.259 386.284 155.969C386.284 155.678 386.284 155.387 386.284 154.951C386.284 154.661 386.284 154.225 386.284 153.934C386.421 153.643 386.421 153.353 386.558 152.917C386.695 152.626 386.695 152.335 386.832 152.045C386.969 151.754 387.106 151.463 387.243 151.318C387.38 151.027 387.654 150.737 387.928 150.591C388.202 150.446 388.339 150.301 388.613 150.01C388.888 149.865 389.162 149.719 389.436 149.719C389.71 149.719 389.984 149.574 390.395 149.574C390.532 149.574 390.669 149.574 390.943 149.574C391.08 149.574 391.217 149.574 391.491 149.719C391.628 149.719 391.765 149.865 392.039 149.865C392.313 149.865 392.313 150.01 392.45 150.155C392.587 150.301 392.724 150.301 392.861 150.446C392.998 150.591 393.135 150.737 393.272 150.737L393.409 150.882V149.865H394.232V150.01ZM392.45 151.609C392.313 151.463 392.176 151.463 391.902 151.463C391.765 151.463 391.491 151.463 391.354 151.463C391.217 151.463 390.943 151.463 390.806 151.463C390.669 151.463 390.532 151.609 390.258 151.609C390.121 151.754 389.984 151.754 389.847 151.899C389.71 152.045 389.573 152.19 389.436 152.335C389.299 152.481 389.162 152.626 389.162 152.917C389.025 153.062 389.025 153.207 388.888 153.498C388.75 153.643 388.751 153.934 388.751 154.079C388.751 154.37 388.613 154.515 388.613 154.806C388.613 155.097 388.613 155.242 388.751 155.533C388.751 155.678 388.75 155.969 388.888 156.114C389.025 156.259 389.025 156.55 389.162 156.695C389.299 156.841 389.299 156.986 389.436 157.277C389.573 157.422 389.71 157.567 389.847 157.713C389.984 157.858 390.121 158.003 390.258 158.003C390.395 158.149 390.532 158.149 390.806 158.149C390.943 158.149 391.08 158.294 391.354 158.294C391.628 158.294 391.765 158.294 391.902 158.149C392.176 158.149 392.313 158.003 392.45 158.003C392.587 157.858 392.724 157.858 392.861 157.713C392.998 157.567 393.135 157.422 393.272 157.277C393.409 157.131 393.547 156.986 393.547 156.695C393.684 156.55 393.684 156.405 393.821 156.114C393.958 155.969 393.958 155.678 393.958 155.533C393.958 155.242 393.958 155.097 393.958 154.806C393.958 154.515 393.958 154.37 393.958 154.079C393.958 153.934 393.821 153.643 393.821 153.498C393.821 153.353 393.684 153.062 393.547 152.917C393.41 152.771 393.409 152.626 393.272 152.335C393.135 152.19 392.998 152.045 392.861 151.899C392.861 151.899 392.724 151.754 392.45 151.609ZM410.812 160.329H409.442V150.155H411.086V151.027C411.223 150.882 411.36 150.737 411.497 150.737C411.634 150.591 411.771 150.591 411.908 150.446C412.045 150.301 412.182 150.301 412.319 150.301C412.457 150.301 412.594 150.155 412.731 150.155C412.868 150.155 413.005 150.01 413.279 150.01C413.416 150.01 413.553 150.01 413.827 150.01C413.964 150.01 414.101 150.01 414.375 150.01C414.512 150.01 414.649 150.01 414.786 150.155C414.923 150.155 415.06 150.301 415.197 150.301C415.334 150.301 415.471 150.446 415.608 150.446C415.745 150.591 415.882 150.591 416.019 150.737C416.156 150.882 416.293 150.882 416.293 151.027C416.43 151.173 416.43 151.173 416.567 151.318C416.704 151.463 416.704 151.609 416.841 151.609C416.841 151.754 416.978 151.754 416.978 151.899C416.978 152.045 417.115 152.045 417.115 152.19C417.115 152.335 417.116 152.335 417.253 152.481C417.253 152.626 417.253 152.771 417.253 152.771V153.062V153.353C417.39 155.823 417.253 158.149 417.253 160.619H415.608V154.37C415.608 154.079 415.608 153.934 415.608 153.643C415.608 153.498 415.608 153.207 415.471 153.062C415.471 152.917 415.334 152.771 415.334 152.626C415.334 152.481 415.197 152.335 415.197 152.335C415.197 152.19 415.06 152.19 414.923 152.045C414.786 151.899 414.786 151.899 414.649 151.899C414.512 151.754 414.375 151.754 414.238 151.754C414.101 151.754 413.827 151.754 413.69 151.754C413.416 151.754 413.279 151.754 413.142 151.754C413.005 151.754 412.868 151.899 412.594 151.899C412.457 152.045 412.319 152.045 412.182 152.19C412.045 152.335 411.908 152.335 411.908 152.481C411.771 152.626 411.634 152.771 411.634 152.917C411.497 153.062 411.497 153.207 411.497 153.353C411.36 153.498 411.36 153.789 411.36 153.934C411.36 154.079 411.36 154.37 411.36 154.661V160.619H410.812V160.329Z" fill="white"/>
</svg>
